<svg width="57" height="12" viewBox="0 0 57 12" fill="none" xmlns="http://www.w3.org/2000/svg">
<path d="M2.81179 11H0.84304L4.42756 0.818182H6.70455L10.294 11H8.32528L5.60582 2.90625H5.52628L2.81179 11ZM2.87642 7.00781H8.24574V8.48935H2.87642V7.00781ZM14.5541 11.1491C13.7918 11.1491 13.1372 10.9818 12.5903 10.647C12.0468 10.3123 11.6275 9.84991 11.3325 9.25994C11.0409 8.66667 10.895 7.9839 10.895 7.21165C10.895 6.43608 11.0442 5.75166 11.3425 5.15838C11.6408 4.56179 12.0617 4.09777 12.6053 3.76633C13.1521 3.43158 13.7984 3.2642 14.5442 3.2642C15.164 3.2642 15.7125 3.37855 16.1898 3.60724C16.6704 3.83262 17.0532 4.15246 17.3382 4.56676C17.6232 4.97775 17.7857 5.45833 17.8254 6.00852H16.1053C16.0357 5.64062 15.8699 5.33404 15.6081 5.08878C15.3496 4.8402 15.0032 4.71591 14.569 4.71591C14.2011 4.71591 13.878 4.81534 13.5996 5.0142C13.3212 5.20975 13.1041 5.49148 12.9483 5.85938C12.7958 6.22727 12.7196 6.66809 12.7196 7.18182C12.7196 7.70218 12.7958 8.14962 12.9483 8.52415C13.1008 8.89536 13.3145 9.18205 13.5896 9.38423C13.868 9.5831 14.1945 9.68253 14.569 9.68253C14.8342 9.68253 15.0712 9.63281 15.28 9.53338C15.4921 9.43063 15.6694 9.28314 15.8119 9.09091C15.9545 8.89867 16.0522 8.66501 16.1053 8.38991H17.8254C17.7823 8.93016 17.6232 9.40909 17.3482 9.8267C17.0731 10.241 16.6985 10.5658 16.2246 10.8011C15.7506 11.0331 15.1938 11.1491 14.5541 11.1491ZM22.5342 11.1491C21.7719 11.1491 21.1173 10.9818 20.5704 10.647C20.0269 10.3123 19.6076 9.84991 19.3126 9.25994C19.0209 8.66667 18.8751 7.9839 18.8751 7.21165C18.8751 6.43608 19.0243 5.75166 19.3225 5.15838C19.6208 4.56179 20.0418 4.09777 20.5853 3.76633C21.1322 3.43158 21.7785 3.2642 22.5243 3.2642C23.144 3.2642 23.6926 3.37855 24.1699 3.60724C24.6504 3.83262 25.0333 4.15246 25.3183 4.56676C25.6033 4.97775 25.7657 5.45833 25.8055 6.00852H24.0853C24.0157 5.64062 23.85 5.33404 23.5882 5.08878C23.3297 4.8402 22.9833 4.71591 22.5491 4.71591C22.1812 4.71591 21.8581 4.81534 21.5797 5.0142C21.3012 5.20975 21.0841 5.49148 20.9284 5.85938C20.7759 6.22727 20.6997 6.66809 20.6997 7.18182C20.6997 7.70218 20.7759 8.14962 20.9284 8.52415C21.0808 8.89536 21.2946 9.18205 21.5697 9.38423C21.8481 9.5831 22.1746 9.68253 22.5491 9.68253C22.8143 9.68253 23.0512 9.63281 23.26 9.53338C23.4722 9.43063 23.6495 9.28314 23.792 9.09091C23.9345 8.89867 24.0323 8.66501 24.0853 8.38991H25.8055C25.7624 8.93016 25.6033 9.40909 25.3282 9.8267C25.0531 10.241 24.6786 10.5658 24.2047 10.8011C23.7307 11.0331 23.1739 11.1491 22.5342 11.1491ZM30.5143 11.1491C29.7685 11.1491 29.1222 10.9851 28.5754 10.657C28.0285 10.3288 27.6042 9.86979 27.3026 9.27983C27.0043 8.68987 26.8552 8.00047 26.8552 7.21165C26.8552 6.42282 27.0043 5.73177 27.3026 5.13849C27.6042 4.54522 28.0285 4.08452 28.5754 3.75639C29.1222 3.42827 29.7685 3.2642 30.5143 3.2642C31.26 3.2642 31.9063 3.42827 32.4532 3.75639C33.0001 4.08452 33.4227 4.54522 33.721 5.13849C34.0226 5.73177 34.1734 6.42282 34.1734 7.21165C34.1734 8.00047 34.0226 8.68987 33.721 9.27983C33.4227 9.86979 33.0001 10.3288 32.4532 10.657C31.9063 10.9851 31.26 11.1491 30.5143 11.1491ZM30.5242 9.70739C30.9286 9.70739 31.2666 9.59635 31.5384 9.37429C31.8102 9.14891 32.0124 8.8473 32.145 8.46946C32.2808 8.09162 32.3488 7.67069 32.3488 7.20668C32.3488 6.73935 32.2808 6.31676 32.145 5.93892C32.0124 5.55777 31.8102 5.2545 31.5384 5.02912C31.2666 4.80374 30.9286 4.69105 30.5242 4.69105C30.1099 4.69105 29.7652 4.80374 29.4901 5.02912C29.2183 5.2545 29.0145 5.55777 28.8786 5.93892C28.746 6.31676 28.6798 6.73935 28.6798 7.20668C28.6798 7.67069 28.746 8.09162 28.8786 8.46946C29.0145 8.8473 29.2183 9.14891 29.4901 9.37429C29.7652 9.59635 30.1099 9.70739 30.5242 9.70739ZM40.4681 7.78835V3.36364H42.2678V11H40.5228V9.64276H40.4432C40.2709 10.0703 39.9875 10.42 39.5931 10.6918C39.202 10.9635 38.7197 11.0994 38.1463 11.0994C37.6459 11.0994 37.2034 10.9884 36.8189 10.7663C36.4378 10.541 36.1395 10.2145 35.924 9.78693C35.7086 9.35606 35.6009 8.8357 35.6009 8.22585V3.36364H37.4006V7.94744C37.4006 8.43134 37.5332 8.81581 37.7983 9.10085C38.0635 9.38589 38.4115 9.52841 38.8424 9.52841C39.1075 9.52841 39.3644 9.46378 39.613 9.33452C39.8615 9.20526 40.0654 9.01302 40.2245 8.75781C40.3869 8.49929 40.4681 8.17614 40.4681 7.78835ZM45.8182 6.52557V11H44.0185V3.36364H45.7386V4.66122H45.8281C46.0038 4.23366 46.2839 3.89394 46.6683 3.64205C47.0561 3.39015 47.535 3.2642 48.1051 3.2642C48.6321 3.2642 49.0911 3.37689 49.4822 3.60227C49.8767 3.82765 50.1816 4.15412 50.397 4.58168C50.6158 5.00923 50.7235 5.52794 50.7202 6.13778V11H48.9205V6.41619C48.9205 5.90578 48.7879 5.50639 48.5227 5.21804C48.2609 4.92969 47.898 4.78551 47.4339 4.78551C47.1191 4.78551 46.839 4.85511 46.5938 4.99432C46.3518 5.13021 46.1612 5.32741 46.022 5.58594C45.8861 5.84446 45.8182 6.15767 45.8182 6.52557ZM56.2629 3.36364V4.75568H51.873V3.36364H56.2629ZM52.9568 1.53409H54.7565V8.70312C54.7565 8.94508 54.793 9.13068 54.8659 9.25994C54.9421 9.38589 55.0416 9.47206 55.1642 9.51847C55.2868 9.56487 55.4227 9.58807 55.5719 9.58807C55.6846 9.58807 55.7873 9.57978 55.8801 9.56321C55.9762 9.54664 56.0491 9.53172 56.0989 9.51847L56.4021 10.9254C56.306 10.9586 56.1685 10.995 55.9895 11.0348C55.8138 11.0746 55.5984 11.0978 55.3432 11.1044C54.8924 11.1177 54.4864 11.0497 54.1251 10.9006C53.7639 10.7481 53.4772 10.5128 53.2651 10.1946C53.0563 9.87642 52.9535 9.47869 52.9568 9.00142V1.53409Z" fill="#437EF7"/>
</svg>
