<svg width="299" height="50" viewBox="0 0 299 50" fill="none" xmlns="http://www.w3.org/2000/svg">
<g filter="url(#filter0_d_1_4450)">
<rect x="2" y="1" width="295" height="46" rx="6" fill="#437EF7"/>
<path d="M129.541 18.0909V29H127.783L122.643 21.5692H122.552V29H120.576V18.0909H122.344L127.479 25.527H127.575V18.0909H129.541ZM135.231 29.1598C134.411 29.1598 133.702 28.9893 133.106 28.6484C132.513 28.304 132.056 27.8175 131.737 27.1889C131.417 26.5568 131.257 25.8129 131.257 24.957C131.257 24.1154 131.417 23.3768 131.737 22.7411C132.06 22.1019 132.511 21.6048 133.09 21.2496C133.669 20.891 134.349 20.7116 135.13 20.7116C135.634 20.7116 136.11 20.7933 136.557 20.9567C137.008 21.1165 137.406 21.3651 137.751 21.7024C138.099 22.0398 138.372 22.4695 138.571 22.9915C138.77 23.5099 138.869 24.1278 138.869 24.8452V25.4364H132.163V24.1367H137.021C137.017 23.7674 136.937 23.4389 136.781 23.1513C136.625 22.8601 136.407 22.631 136.126 22.4641C135.849 22.2972 135.526 22.2138 135.157 22.2138C134.762 22.2138 134.416 22.3097 134.118 22.5014C133.82 22.6896 133.587 22.9382 133.42 23.2472C133.257 23.5526 133.173 23.8881 133.17 24.2539V25.3885C133.17 25.8643 133.257 26.2727 133.431 26.6136C133.605 26.951 133.848 27.2102 134.16 27.3913C134.473 27.5689 134.839 27.6577 135.258 27.6577C135.538 27.6577 135.792 27.6186 136.019 27.5405C136.247 27.4588 136.444 27.3398 136.611 27.1836C136.778 27.0273 136.904 26.8338 136.989 26.603L138.789 26.8054C138.676 27.2812 138.459 27.6967 138.139 28.0518C137.823 28.4034 137.419 28.6768 136.925 28.8722C136.431 29.0639 135.867 29.1598 135.231 29.1598ZM141.901 20.8182L143.553 23.8384L145.231 20.8182H147.271L144.805 24.9091L147.313 29H145.284L143.553 26.0543L141.838 29H139.792L142.285 24.9091L139.856 20.8182H141.901ZM152.848 20.8182V22.3097H148.144V20.8182H152.848ZM149.306 18.858H151.234V26.5391C151.234 26.7983 151.273 26.9972 151.351 27.1357C151.433 27.2706 151.539 27.3629 151.671 27.4126C151.802 27.4624 151.948 27.4872 152.107 27.4872C152.228 27.4872 152.338 27.4783 152.438 27.4606C152.541 27.4428 152.619 27.4268 152.672 27.4126L152.997 28.9201C152.894 28.9556 152.747 28.9947 152.555 29.0373C152.367 29.0799 152.136 29.1048 151.862 29.1119C151.379 29.1261 150.944 29.0533 150.557 28.8935C150.17 28.7301 149.863 28.478 149.636 28.1371C149.412 27.7962 149.302 27.37 149.306 26.8587V18.858Z" fill="white"/>
<path d="M167.833 19L172.244 23.4107C172.57 23.7362 172.57 24.2638 172.244 24.5893L167.833 29" stroke="white" stroke-width="1.67" stroke-linecap="round"/>
</g>
<defs>
<filter id="filter0_d_1_4450" x="0" y="0" width="299" height="50" filterUnits="userSpaceOnUse" color-interpolation-filters="sRGB">
<feFlood flood-opacity="0" result="BackgroundImageFix"/>
<feColorMatrix in="SourceAlpha" type="matrix" values="0 0 0 0 0 0 0 0 0 0 0 0 0 0 0 0 0 0 127 0" result="hardAlpha"/>
<feOffset dy="1"/>
<feGaussianBlur stdDeviation="1"/>
<feComposite in2="hardAlpha" operator="out"/>
<feColorMatrix type="matrix" values="0 0 0 0 0.0627451 0 0 0 0 0.0941176 0 0 0 0 0.156863 0 0 0 0.04 0"/>
<feBlend mode="normal" in2="BackgroundImageFix" result="effect1_dropShadow_1_4450"/>
<feBlend mode="normal" in="SourceGraphic" in2="effect1_dropShadow_1_4450" result="shape"/>
</filter>
</defs>
</svg>
