<svg width="39" height="15" viewBox="0 0 39 15" fill="none" xmlns="http://www.w3.org/2000/svg">
<path d="M0.170887 11V0.818182H4.06861C4.80441 0.818182 5.41592 0.934185 5.90313 1.16619C6.39366 1.39489 6.7599 1.7081 7.00185 2.10582C7.24712 2.50355 7.36975 2.95431 7.36975 3.4581C7.36975 3.8724 7.29021 4.22704 7.13111 4.52202C6.97202 4.81368 6.75825 5.05066 6.48978 5.23295C6.22131 5.41525 5.92136 5.54616 5.58992 5.62571V5.72514C5.95119 5.74503 6.29754 5.85606 6.62898 6.05824C6.96374 6.2571 7.23718 6.53883 7.4493 6.90341C7.66142 7.26799 7.76748 7.70881 7.76748 8.22585C7.76748 8.75284 7.63987 9.2268 7.38467 9.64773C7.12946 10.0653 6.74499 10.3951 6.23126 10.6371C5.71753 10.879 5.07122 11 4.29234 11H0.170887ZM2.01535 9.45881H3.99901C4.66852 9.45881 5.15076 9.3312 5.44575 9.07599C5.74404 8.81747 5.89319 8.48603 5.89319 8.08168C5.89319 7.78007 5.81861 7.50829 5.66947 7.26634C5.52032 7.02107 5.3082 6.82884 5.0331 6.68963C4.75801 6.54711 4.42988 6.47585 4.04873 6.47585H2.01535V9.45881ZM2.01535 5.14844H3.83992C4.1581 5.14844 4.4448 5.09044 4.70001 4.97443C4.95522 4.85511 5.15574 4.68774 5.30157 4.4723C5.45072 4.25355 5.52529 3.99503 5.52529 3.69673C5.52529 3.30232 5.38609 2.97751 5.10768 2.7223C4.83258 2.46709 4.42325 2.33949 3.87969 2.33949H2.01535V5.14844ZM9.19251 11V3.36364H10.9922V11H9.19251ZM10.0973 2.27983C9.81231 2.27983 9.56704 2.18537 9.36155 1.99645C9.15606 1.80421 9.05331 1.57386 9.05331 1.3054C9.05331 1.03362 9.15606 0.803267 9.36155 0.614346C9.56704 0.422111 9.81231 0.325994 10.0973 0.325994C10.3857 0.325994 10.631 0.422111 10.8331 0.614346C11.0386 0.803267 11.1414 1.03362 11.1414 1.3054C11.1414 1.57386 11.0386 1.80421 10.8331 1.99645C10.631 2.18537 10.3857 2.27983 10.0973 2.27983ZM14.5426 0.818182V11H12.7429V0.818182H14.5426ZM18.093 0.818182V11H16.2933V0.818182H18.093ZM19.8437 11V3.36364H21.6434V11H19.8437ZM20.7485 2.27983C20.4635 2.27983 20.2182 2.18537 20.0127 1.99645C19.8072 1.80421 19.7045 1.57386 19.7045 1.3054C19.7045 1.03362 19.8072 0.803267 20.0127 0.614346C20.2182 0.422111 20.4635 0.325994 20.7485 0.325994C21.0369 0.325994 21.2821 0.422111 21.4843 0.614346C21.6898 0.803267 21.7925 1.03362 21.7925 1.3054C21.7925 1.57386 21.6898 1.80421 21.4843 1.99645C21.2821 2.18537 21.0369 2.27983 20.7485 2.27983ZM25.1938 6.52557V11H23.3941V3.36364H25.1142V4.66122H25.2037C25.3794 4.23366 25.6595 3.89394 26.0439 3.64205C26.4317 3.39015 26.9106 3.2642 27.4807 3.2642C28.0077 3.2642 28.4668 3.37689 28.8579 3.60227C29.2523 3.82765 29.5572 4.15412 29.7726 4.58168C29.9914 5.00923 30.0991 5.52794 30.0958 6.13778V11H28.2961V6.41619C28.2961 5.90578 28.1635 5.50639 27.8983 5.21804C27.6365 4.92969 27.2736 4.78551 26.8096 4.78551C26.4947 4.78551 26.2146 4.85511 25.9694 4.99432C25.7274 5.13021 25.5368 5.32741 25.3976 5.58594C25.2617 5.84446 25.1938 6.15767 25.1938 6.52557ZM35.1463 14.0227C34.5 14.0227 33.9449 13.9349 33.4809 13.7592C33.0169 13.5869 32.644 13.3549 32.3623 13.0632C32.0805 12.7715 31.885 12.4484 31.7756 12.0938L33.3963 11.701C33.4693 11.8501 33.5753 11.9976 33.7145 12.1435C33.8537 12.2926 34.041 12.4152 34.2763 12.5114C34.515 12.6108 34.8149 12.6605 35.1762 12.6605C35.6866 12.6605 36.1092 12.5362 36.4439 12.2876C36.7787 12.0424 36.9461 11.638 36.9461 11.0746V9.62784H36.8566C36.7638 9.81345 36.6279 10.004 36.4489 10.1996C36.2732 10.3951 36.0396 10.5592 35.7479 10.6918C35.4596 10.8243 35.0966 10.8906 34.6591 10.8906C34.0725 10.8906 33.5405 10.7531 33.0633 10.478C32.5893 10.1996 32.2115 9.78527 31.9297 9.23509C31.6513 8.68158 31.5121 7.98887 31.5121 7.15696C31.5121 6.31842 31.6513 5.6108 31.9297 5.03409C32.2115 4.45407 32.591 4.01491 33.0682 3.71662C33.5455 3.41501 34.0775 3.2642 34.6641 3.2642C35.1115 3.2642 35.4794 3.34044 35.7678 3.4929C36.0595 3.64205 36.2915 3.82268 36.4638 4.0348C36.6362 4.24361 36.7671 4.44081 36.8566 4.62642H36.956V3.36364H38.7309V11.1243C38.7309 11.7772 38.5751 12.3175 38.2635 12.745C37.952 13.1726 37.5261 13.4924 36.9858 13.7045C36.4456 13.9167 35.8324 14.0227 35.1463 14.0227ZM35.1613 9.47869C35.5424 9.47869 35.8672 9.38589 36.1357 9.20028C36.4042 9.01468 36.608 8.74787 36.7472 8.39986C36.8864 8.05185 36.956 7.63423 36.956 7.14702C36.956 6.66643 36.8864 6.2455 36.7472 5.88423C36.6113 5.52296 36.4091 5.2429 36.1407 5.04403C35.8755 4.84186 35.549 4.74077 35.1613 4.74077C34.7602 4.74077 34.4255 4.84517 34.157 5.05398C33.8885 5.26278 33.6864 5.54948 33.5505 5.91406C33.4146 6.27533 33.3466 6.68632 33.3466 7.14702C33.3466 7.61435 33.4146 8.02367 33.5505 8.375C33.6897 8.72301 33.8935 8.99479 34.162 9.19034C34.4338 9.38258 34.7669 9.47869 35.1613 9.47869Z" fill="#5F6D7E"/>
</svg>
