<svg width="128" height="12" viewBox="0 0 128 12" fill="none" xmlns="http://www.w3.org/2000/svg">
<path d="M9.57528 4.12926H8.02415C7.96449 3.79782 7.85346 3.50615 7.69105 3.25426C7.52865 3.00237 7.32978 2.78859 7.09446 2.61293C6.85914 2.43726 6.59564 2.30469 6.30398 2.2152C6.01563 2.12571 5.70904 2.08097 5.38423 2.08097C4.79759 2.08097 4.27225 2.22846 3.80824 2.52344C3.34754 2.81842 2.98295 3.25095 2.71449 3.82102C2.44934 4.3911 2.31676 5.08712 2.31676 5.90909C2.31676 6.73769 2.44934 7.43703 2.71449 8.0071C2.98295 8.57718 3.3492 9.00805 3.81321 9.29972C4.27723 9.59138 4.79924 9.73722 5.37926 9.73722C5.70076 9.73722 6.00568 9.69413 6.29403 9.60795C6.5857 9.51847 6.8492 9.38755 7.08452 9.2152C7.31984 9.04285 7.5187 8.83239 7.68111 8.58381C7.84683 8.33191 7.96117 8.04356 8.02415 7.71875L9.57528 7.72372C9.49242 8.22419 9.33168 8.6849 9.09304 9.10582C8.85772 9.52344 8.55445 9.88471 8.18324 10.1896C7.81534 10.4912 7.39441 10.7249 6.92045 10.8906C6.4465 11.0563 5.92945 11.1392 5.36932 11.1392C4.48769 11.1392 3.70218 10.9304 3.01278 10.5128C2.32339 10.0919 1.77983 9.49029 1.3821 8.7081C0.987689 7.9259 0.790483 6.9929 0.790483 5.90909C0.790483 4.82197 0.989347 3.88897 1.38707 3.11008C1.7848 2.32789 2.32836 1.72798 3.01776 1.31037C3.70715 0.889441 4.491 0.678977 5.36932 0.678977C5.90956 0.678977 6.41335 0.756865 6.88068 0.912642C7.35133 1.0651 7.77391 1.29048 8.14844 1.58878C8.52296 1.88376 8.83286 2.24503 9.07812 2.67258C9.32339 3.09683 9.48911 3.58239 9.57528 4.12926ZM14.4108 11.1541C13.6949 11.1541 13.0702 10.9901 12.5365 10.6619C12.0029 10.3338 11.5886 9.87476 11.2936 9.2848C10.9987 8.69484 10.8512 8.00544 10.8512 7.21662C10.8512 6.42448 10.9987 5.73177 11.2936 5.13849C11.5886 4.54522 12.0029 4.08452 12.5365 3.75639C13.0702 3.42827 13.6949 3.2642 14.4108 3.2642C15.1267 3.2642 15.7515 3.42827 16.2851 3.75639C16.8187 4.08452 17.233 4.54522 17.528 5.13849C17.823 5.73177 17.9705 6.42448 17.9705 7.21662C17.9705 8.00544 17.823 8.69484 17.528 9.2848C17.233 9.87476 16.8187 10.3338 16.2851 10.6619C15.7515 10.9901 15.1267 11.1541 14.4108 11.1541ZM14.4158 9.90625C14.8798 9.90625 15.2643 9.78362 15.5692 9.53835C15.8741 9.29309 16.0995 8.96662 16.2453 8.55895C16.3945 8.15128 16.4691 7.70218 16.4691 7.21165C16.4691 6.72443 16.3945 6.27699 16.2453 5.86932C16.0995 5.45833 15.8741 5.12855 15.5692 4.87997C15.2643 4.63139 14.8798 4.5071 14.4158 4.5071C13.9485 4.5071 13.5607 4.63139 13.2524 4.87997C12.9475 5.12855 12.7205 5.45833 12.5713 5.86932C12.4255 6.27699 12.3526 6.72443 12.3526 7.21165C12.3526 7.70218 12.4255 8.15128 12.5713 8.55895C12.7205 8.96662 12.9475 9.29309 13.2524 9.53835C13.5607 9.78362 13.9485 9.90625 14.4158 9.90625ZM21.0163 6.46591V11H19.5298V3.36364H20.9566V4.60653H21.0511C21.2267 4.20218 21.5018 3.87737 21.8763 3.6321C22.2542 3.38684 22.7298 3.2642 23.3032 3.2642C23.8236 3.2642 24.2793 3.37358 24.6704 3.59233C25.0615 3.80777 25.3647 4.12926 25.5802 4.55682C25.7956 4.98437 25.9033 5.51302 25.9033 6.14276V11H24.4168V6.32173C24.4168 5.76823 24.2727 5.3357 23.9843 5.02415C23.696 4.70928 23.2999 4.55185 22.7961 4.55185C22.4514 4.55185 22.1448 4.62642 21.8763 4.77557C21.6112 4.92472 21.4007 5.14347 21.245 5.43182C21.0925 5.71686 21.0163 6.06155 21.0163 6.46591ZM31.4312 3.36364V4.55682H27.1158V3.36364H31.4312ZM28.2991 11V2.47869C28.2991 2.00142 28.4035 1.60535 28.6123 1.29048C28.8211 0.972301 29.0978 0.735322 29.4425 0.579545C29.7872 0.420454 30.1618 0.340908 30.5661 0.340908C30.8644 0.340908 31.1196 0.365767 31.3317 0.415483C31.5439 0.461884 31.7013 0.504971 31.804 0.544744L31.456 1.74787C31.3864 1.72798 31.2969 1.70478 31.1876 1.67827C31.0782 1.64844 30.9456 1.63352 30.7898 1.63352C30.4286 1.63352 30.1701 1.72301 30.0143 1.90199C29.8618 2.08097 29.7856 2.33949 29.7856 2.67756V11H28.2991ZM32.8649 11V3.36364H34.3514V11H32.8649ZM33.6156 2.18537C33.3571 2.18537 33.135 2.09919 32.9494 1.92685C32.7671 1.75118 32.676 1.54238 32.676 1.30043C32.676 1.05516 32.7671 0.846354 32.9494 0.674005C33.135 0.498342 33.3571 0.410511 33.6156 0.410511C33.8741 0.410511 34.0946 0.498342 34.2768 0.674005C34.4625 0.846354 34.5553 1.05516 34.5553 1.30043C34.5553 1.54238 34.4625 1.75118 34.2768 1.92685C34.0946 2.09919 33.8741 2.18537 33.6156 2.18537ZM36.2512 11V3.36364H37.688V4.5767H37.7676C37.9068 4.16572 38.152 3.84257 38.5034 3.60724C38.858 3.36861 39.2591 3.24929 39.7065 3.24929C39.7993 3.24929 39.9087 3.2526 40.0346 3.25923C40.1639 3.26586 40.265 3.27415 40.3379 3.28409V4.70597C40.2782 4.68939 40.1722 4.67116 40.0197 4.65128C39.8672 4.62808 39.7148 4.61648 39.5623 4.61648C39.211 4.61648 38.8978 4.69105 38.6227 4.8402C38.3509 4.98603 38.1355 5.18987 37.9764 5.4517C37.8173 5.71023 37.7377 6.00521 37.7377 6.33665V11H36.2512ZM41.5243 11V3.36364H42.9511V4.60653H43.0456C43.2047 4.18561 43.4649 3.85748 43.8261 3.62216C44.1874 3.38352 44.6199 3.2642 45.1237 3.2642C45.6341 3.2642 46.0617 3.38352 46.4064 3.62216C46.7544 3.8608 47.0113 4.18892 47.177 4.60653H47.2565C47.4388 4.19886 47.7288 3.87405 48.1266 3.6321C48.5243 3.38684 48.9982 3.2642 49.5484 3.2642C50.2411 3.2642 50.8063 3.4813 51.2438 3.91548C51.6846 4.34967 51.905 5.00426 51.905 5.87926V11H50.4185V6.01847C50.4185 5.50142 50.2776 5.12689 49.9959 4.89489C49.7142 4.66288 49.3777 4.54688 48.9866 4.54688C48.5027 4.54688 48.1266 4.69602 47.8581 4.99432C47.5896 5.2893 47.4554 5.6688 47.4554 6.13281V11H45.9739V5.92401C45.9739 5.50971 45.8446 5.17661 45.5861 4.92472C45.3276 4.67282 44.9911 4.54688 44.5768 4.54688C44.2951 4.54688 44.0349 4.62145 43.7963 4.7706C43.561 4.91643 43.3704 5.12026 43.2246 5.3821C43.0821 5.64394 43.0108 5.94721 43.0108 6.2919V11H41.5243ZM57.5217 11V0.818182H61.151C61.9431 0.818182 62.5994 0.962358 63.1197 1.25071C63.6401 1.53906 64.0295 1.93347 64.2881 2.43395C64.5466 2.93111 64.6759 3.49124 64.6759 4.11435C64.6759 4.74077 64.5449 5.30421 64.2831 5.80469C64.0246 6.30185 63.6335 6.69626 63.1098 6.98793C62.5894 7.27628 61.9348 7.42045 61.146 7.42045H58.6503V6.1179H61.0068C61.5073 6.1179 61.9133 6.03172 62.2249 5.85938C62.5364 5.68371 62.7651 5.44508 62.9109 5.14347C63.0568 4.84186 63.1297 4.49882 63.1297 4.11435C63.1297 3.72988 63.0568 3.38849 62.9109 3.0902C62.7651 2.7919 62.5348 2.55824 62.2199 2.3892C61.9083 2.22017 61.4973 2.13565 60.9869 2.13565H59.058V11H57.5217ZM68.4114 11.169C67.9275 11.169 67.49 11.0795 67.0989 10.9006C66.7078 10.7183 66.3979 10.4548 66.1692 10.1101C65.9439 9.76539 65.8312 9.3428 65.8312 8.84233C65.8312 8.41146 65.914 8.05682 66.0798 7.77841C66.2455 7.5 66.4692 7.27959 66.7509 7.11719C67.0326 6.95478 67.3475 6.83215 67.6955 6.74929C68.0435 6.66643 68.3982 6.60346 68.7594 6.56037C69.2168 6.50734 69.588 6.46425 69.8731 6.43111C70.1581 6.39465 70.3653 6.33665 70.4945 6.2571C70.6238 6.17756 70.6884 6.0483 70.6884 5.86932V5.83452C70.6884 5.40033 70.5658 5.06392 70.3205 4.82528C70.0786 4.58665 69.7173 4.46733 69.2367 4.46733C68.7362 4.46733 68.3418 4.57836 68.0535 4.80043C67.7684 5.01918 67.5712 5.26278 67.4619 5.53125L66.0648 5.21307C66.2306 4.74905 66.4725 4.37453 66.7907 4.08949C67.1122 3.80114 67.4817 3.59233 67.8994 3.46307C68.317 3.33049 68.7561 3.2642 69.2168 3.2642C69.5218 3.2642 69.8449 3.30066 70.1863 3.37358C70.531 3.44318 70.8525 3.57244 71.1508 3.76136C71.4524 3.95028 71.6993 4.22041 71.8915 4.57173C72.0838 4.91974 72.1799 5.37216 72.1799 5.92898V11H70.7282V9.95597H70.6685C70.5724 10.1482 70.4282 10.3371 70.236 10.5227C70.0438 10.7083 69.7968 10.8625 69.4952 10.9851C69.1936 11.1077 68.8324 11.169 68.4114 11.169ZM68.7346 9.97585C69.1456 9.97585 69.4969 9.89465 69.7886 9.73224C70.0835 9.56984 70.3073 9.35772 70.4597 9.09588C70.6155 8.83073 70.6934 8.54735 70.6934 8.24574V7.26136C70.6404 7.31439 70.5376 7.36411 70.3852 7.41051C70.236 7.4536 70.0653 7.49171 69.8731 7.52486C69.6808 7.55469 69.4936 7.58286 69.3113 7.60938C69.129 7.63258 68.9765 7.65246 68.8539 7.66903C68.5656 7.70549 68.3021 7.76681 68.0634 7.85298C67.8281 7.93916 67.6392 8.06345 67.4967 8.22585C67.3575 8.38494 67.2879 8.59706 67.2879 8.86222C67.2879 9.23011 67.4237 9.50852 67.6955 9.69744C67.9673 9.88305 68.3137 9.97585 68.7346 9.97585ZM79.7821 5.22798L78.4348 5.46662C78.3785 5.29427 78.289 5.13021 78.1664 4.97443C78.0471 4.81865 77.8846 4.69105 77.6792 4.59162C77.4737 4.49219 77.2168 4.44247 76.9086 4.44247C76.4876 4.44247 76.1363 4.53693 75.8546 4.72585C75.5729 4.91146 75.432 5.15175 75.432 5.44673C75.432 5.70194 75.5265 5.90743 75.7154 6.06321C75.9043 6.21899 76.2092 6.34659 76.6301 6.44602L77.8432 6.72443C78.5459 6.88684 79.0695 7.13707 79.4142 7.47514C79.7589 7.81321 79.9313 8.25237 79.9313 8.79261C79.9313 9.25 79.7987 9.65767 79.5336 10.0156C79.2717 10.3703 78.9055 10.6487 78.4348 10.8509C77.9675 11.053 77.4256 11.1541 76.8091 11.1541C75.954 11.1541 75.2563 10.9718 74.7161 10.6072C74.1758 10.2393 73.8444 9.71733 73.7218 9.04119L75.1586 8.82244C75.248 9.19697 75.432 9.48035 75.7104 9.67259C75.9888 9.86151 76.3517 9.95597 76.7992 9.95597C77.2864 9.95597 77.6758 9.85488 77.9675 9.6527C78.2592 9.44721 78.405 9.19697 78.405 8.90199C78.405 8.66335 78.3155 8.46283 78.1365 8.30043C77.9609 8.13802 77.6908 8.01539 77.3262 7.93253L76.0336 7.64915C75.321 7.48674 74.794 7.22822 74.4526 6.87358C74.1145 6.51894 73.9455 6.06984 73.9455 5.52628C73.9455 5.07552 74.0714 4.68111 74.3233 4.34304C74.5752 4.00497 74.9232 3.74148 75.3674 3.55256C75.8115 3.36032 76.3203 3.2642 76.8936 3.2642C77.7189 3.2642 78.3685 3.44318 78.8425 3.80114C79.3165 4.15578 79.6297 4.63139 79.7821 5.22798ZM87.188 5.22798L85.8407 5.46662C85.7844 5.29427 85.6949 5.13021 85.5722 4.97443C85.4529 4.81865 85.2905 4.69105 85.085 4.59162C84.8795 4.49219 84.6227 4.44247 84.3144 4.44247C83.8935 4.44247 83.5422 4.53693 83.2604 4.72585C82.9787 4.91146 82.8379 5.15175 82.8379 5.44673C82.8379 5.70194 82.9323 5.90743 83.1212 6.06321C83.3102 6.21899 83.6151 6.34659 84.036 6.44602L85.2491 6.72443C85.9517 6.88684 86.4754 7.13707 86.8201 7.47514C87.1648 7.81321 87.3371 8.25237 87.3371 8.79261C87.3371 9.25 87.2046 9.65767 86.9394 10.0156C86.6776 10.3703 86.3113 10.6487 85.8407 10.8509C85.3734 11.053 84.8315 11.1541 84.215 11.1541C83.3599 11.1541 82.6622 10.9718 82.1219 10.6072C81.5817 10.2393 81.2503 9.71733 81.1276 9.04119L82.5644 8.82244C82.6539 9.19697 82.8379 9.48035 83.1163 9.67259C83.3947 9.86151 83.7576 9.95597 84.205 9.95597C84.6923 9.95597 85.0817 9.85488 85.3734 9.6527C85.665 9.44721 85.8109 9.19697 85.8109 8.90199C85.8109 8.66335 85.7214 8.46283 85.5424 8.30043C85.3667 8.13802 85.0966 8.01539 84.732 7.93253L83.4394 7.64915C82.7268 7.48674 82.1998 7.22822 81.8585 6.87358C81.5204 6.51894 81.3514 6.06984 81.3514 5.52628C81.3514 5.07552 81.4773 4.68111 81.7292 4.34304C81.9811 4.00497 82.3291 3.74148 82.7732 3.55256C83.2174 3.36032 83.7261 3.2642 84.2995 3.2642C85.1248 3.2642 85.7744 3.44318 86.2484 3.80114C86.7223 4.15578 87.0355 4.63139 87.188 5.22798ZM90.5271 11L88.2799 3.36364H89.8162L91.3126 8.97159H91.3872L92.8886 3.36364H94.4248L95.9163 8.94673H95.9909L97.4774 3.36364H99.0136L96.7714 11H95.2551L93.7039 5.48651H93.5896L92.0385 11H90.5271ZM103.308 11.1541C102.593 11.1541 101.968 10.9901 101.434 10.6619C100.901 10.3338 100.486 9.87476 100.191 9.2848C99.8963 8.69484 99.7488 8.00544 99.7488 7.21662C99.7488 6.42448 99.8963 5.73177 100.191 5.13849C100.486 4.54522 100.901 4.08452 101.434 3.75639C101.968 3.42827 102.593 3.2642 103.308 3.2642C104.024 3.2642 104.649 3.42827 105.183 3.75639C105.716 4.08452 106.131 4.54522 106.426 5.13849C106.721 5.73177 106.868 6.42448 106.868 7.21662C106.868 8.00544 106.721 8.69484 106.426 9.2848C106.131 9.87476 105.716 10.3338 105.183 10.6619C104.649 10.9901 104.024 11.1541 103.308 11.1541ZM103.313 9.90625C103.777 9.90625 104.162 9.78362 104.467 9.53835C104.772 9.29309 104.997 8.96662 105.143 8.55895C105.292 8.15128 105.367 7.70218 105.367 7.21165C105.367 6.72443 105.292 6.27699 105.143 5.86932C104.997 5.45833 104.772 5.12855 104.467 4.87997C104.162 4.63139 103.777 4.5071 103.313 4.5071C102.846 4.5071 102.458 4.63139 102.15 4.87997C101.845 5.12855 101.618 5.45833 101.469 5.86932C101.323 6.27699 101.25 6.72443 101.25 7.21165C101.25 7.70218 101.323 8.15128 101.469 8.55895C101.618 8.96662 101.845 9.29309 102.15 9.53835C102.458 9.78362 102.846 9.90625 103.313 9.90625ZM108.427 11V3.36364H109.864V4.5767H109.944C110.083 4.16572 110.328 3.84257 110.68 3.60724C111.034 3.36861 111.435 3.24929 111.883 3.24929C111.975 3.24929 112.085 3.2526 112.211 3.25923C112.34 3.26586 112.441 3.27415 112.514 3.28409V4.70597C112.454 4.68939 112.348 4.67116 112.196 4.65128C112.043 4.62808 111.891 4.61648 111.738 4.61648C111.387 4.61648 111.074 4.69105 110.799 4.8402C110.527 4.98603 110.312 5.18987 110.153 5.4517C109.993 5.71023 109.914 6.00521 109.914 6.33665V11H108.427ZM116.286 11.1491C115.669 11.1491 115.119 10.9917 114.635 10.6768C114.155 10.3587 113.777 9.90625 113.502 9.3196C113.23 8.72964 113.094 8.02202 113.094 7.19673C113.094 6.37145 113.231 5.66548 113.507 5.07884C113.785 4.49219 114.166 4.04309 114.65 3.73153C115.134 3.41998 115.682 3.2642 116.296 3.2642C116.77 3.2642 117.151 3.34375 117.439 3.50284C117.731 3.65862 117.956 3.84091 118.115 4.04972C118.278 4.25852 118.404 4.44247 118.493 4.60156H118.583V0.818182H120.069V11H118.617V9.81179H118.493C118.404 9.9742 118.274 10.1598 118.105 10.3686C117.94 10.5774 117.711 10.7597 117.419 10.9155C117.128 11.0713 116.75 11.1491 116.286 11.1491ZM116.614 9.88139C117.041 9.88139 117.403 9.7687 117.698 9.54332C117.996 9.31463 118.221 8.99811 118.374 8.59375C118.53 8.18939 118.607 7.71875 118.607 7.18182C118.607 6.65151 118.531 6.1875 118.379 5.78977C118.226 5.39205 118.003 5.08215 117.708 4.86009C117.413 4.63802 117.048 4.52699 116.614 4.52699C116.166 4.52699 115.794 4.64299 115.495 4.875C115.197 5.10701 114.972 5.42353 114.819 5.82457C114.67 6.22562 114.595 6.67803 114.595 7.18182C114.595 7.69223 114.672 8.15128 114.824 8.55895C114.977 8.96662 115.202 9.28977 115.5 9.52841C115.802 9.76373 116.173 9.88139 116.614 9.88139ZM124.204 6.54545L124.298 4.44744L122.528 5.58594L121.986 4.64134L123.866 3.68182L121.986 2.7223L122.528 1.7777L124.298 2.91619L124.204 0.818182H125.282L125.188 2.91619L126.958 1.7777L127.5 2.7223L125.621 3.68182L127.5 4.64134L126.958 5.58594L125.188 4.44744L125.282 6.54545H124.204Z" fill="#272D37"/>
</svg>
