<svg width="34" height="12" viewBox="0 0 34 12" fill="none" xmlns="http://www.w3.org/2000/svg">
<path d="M3.45455 11H0.00426134V0.818182H3.52415C4.53504 0.818182 5.40341 1.02202 6.12926 1.42969C6.85843 1.83404 7.41856 2.41572 7.80966 3.17472C8.20076 3.93371 8.39631 4.84186 8.39631 5.89915C8.39631 6.95975 8.1991 7.87121 7.80469 8.63352C7.41359 9.39583 6.84849 9.98082 6.10938 10.3885C5.37358 10.7962 4.48864 11 3.45455 11ZM1.84872 9.40412H3.36506C4.07434 9.40412 4.66596 9.27486 5.13991 9.01634C5.61387 8.7545 5.97017 8.36506 6.20881 7.84801C6.44744 7.32765 6.56676 6.67803 6.56676 5.89915C6.56676 5.12026 6.44744 4.47396 6.20881 3.96023C5.97017 3.44318 5.61719 3.05706 5.14986 2.80185C4.68584 2.54332 4.10914 2.41406 3.41974 2.41406H1.84872V9.40412ZM13.3002 11.1491C12.5545 11.1491 11.9082 10.9851 11.3613 10.657C10.8144 10.3288 10.3902 9.86979 10.0886 9.27983C9.79027 8.68987 9.64112 8.00047 9.64112 7.21165C9.64112 6.42282 9.79027 5.73177 10.0886 5.13849C10.3902 4.54522 10.8144 4.08452 11.3613 3.75639C11.9082 3.42827 12.5545 3.2642 13.3002 3.2642C14.046 3.2642 14.6923 3.42827 15.2391 3.75639C15.786 4.08452 16.2086 4.54522 16.5069 5.13849C16.8085 5.73177 16.9593 6.42282 16.9593 7.21165C16.9593 8.00047 16.8085 8.68987 16.5069 9.27983C16.2086 9.86979 15.786 10.3288 15.2391 10.657C14.6923 10.9851 14.046 11.1491 13.3002 11.1491ZM13.3102 9.70739C13.7145 9.70739 14.0526 9.59635 14.3244 9.37429C14.5961 9.14891 14.7983 8.8473 14.9309 8.46946C15.0668 8.09162 15.1347 7.67069 15.1347 7.20668C15.1347 6.73935 15.0668 6.31676 14.9309 5.93892C14.7983 5.55777 14.5961 5.2545 14.3244 5.02912C14.0526 4.80374 13.7145 4.69105 13.3102 4.69105C12.8959 4.69105 12.5512 4.80374 12.2761 5.02912C12.0043 5.2545 11.8004 5.55777 11.6646 5.93892C11.532 6.31676 11.4657 6.73935 11.4657 7.20668C11.4657 7.67069 11.532 8.09162 11.6646 8.46946C11.8004 8.8473 12.0043 9.14891 12.2761 9.37429C12.5512 9.59635 12.8959 9.70739 13.3102 9.70739ZM20.1865 6.52557V11H18.3868V3.36364H20.107V4.66122H20.1965C20.3721 4.23366 20.6522 3.89394 21.0367 3.64205C21.4245 3.39015 21.9034 3.2642 22.4735 3.2642C23.0005 3.2642 23.4595 3.37689 23.8506 3.60227C24.245 3.82765 24.5499 4.15412 24.7654 4.58168C24.9841 5.00923 25.0918 5.52794 25.0885 6.13778V11H23.2888V6.41619C23.2888 5.90578 23.1562 5.50639 22.8911 5.21804C22.6292 4.92969 22.2663 4.78551 21.8023 4.78551C21.4874 4.78551 21.2074 4.85511 20.9621 4.99432C20.7202 5.13021 20.5296 5.32741 20.3904 5.58594C20.2545 5.84446 20.1865 6.15767 20.1865 6.52557ZM30.1988 11.1491C29.4331 11.1491 28.7719 10.9901 28.2151 10.6719C27.6616 10.3504 27.2357 9.89631 26.9374 9.30966C26.6391 8.7197 26.49 8.02533 26.49 7.22656C26.49 6.44105 26.6391 5.75166 26.9374 5.15838C27.239 4.56179 27.6599 4.09777 28.2002 3.76633C28.7404 3.43158 29.3751 3.2642 30.1043 3.2642C30.5749 3.2642 31.0191 3.34044 31.4367 3.4929C31.8576 3.64205 32.2288 3.87405 32.5503 4.18892C32.8751 4.50379 33.1303 4.90483 33.3159 5.39205C33.5016 5.87595 33.5944 6.45265 33.5944 7.12216V7.67401H27.3351V6.46094H31.8692C31.8659 6.11624 31.7913 5.80966 31.6455 5.54119C31.4997 5.26941 31.2958 5.05563 31.034 4.89986C30.7755 4.74408 30.4739 4.66619 30.1292 4.66619C29.7613 4.66619 29.4381 4.75568 29.1597 4.93466C28.8813 5.11032 28.6642 5.34233 28.5084 5.63068C28.356 5.91572 28.2781 6.22893 28.2748 6.57031V7.62926C28.2748 8.07339 28.356 8.45455 28.5184 8.77273C28.6808 9.08759 28.9078 9.32955 29.1995 9.49858C29.4911 9.6643 29.8325 9.74716 30.2236 9.74716C30.4855 9.74716 30.7224 9.7107 30.9346 9.63778C31.1467 9.56155 31.3306 9.45052 31.4864 9.30469C31.6422 9.15885 31.7598 8.97822 31.8394 8.76278L33.5198 8.9517C33.4137 9.39583 33.2115 9.78362 32.9132 10.1151C32.6183 10.4432 32.2404 10.6984 31.7797 10.8807C31.319 11.0597 30.792 11.1491 30.1988 11.1491Z" fill="#5F6D7E"/>
</svg>
