<svg width="41" height="12" viewBox="0 0 41 12" fill="none" xmlns="http://www.w3.org/2000/svg">
<path d="M0.118608 11V0.818182H6.50213V2.14062H1.65483V5.2429H6.16903V6.56037H1.65483V9.67756H6.56179V11H0.118608ZM8.33484 11V3.36364H9.76168V4.60653H9.85614C10.0152 4.18561 10.2754 3.85748 10.6367 3.62216C10.998 3.38352 11.4305 3.2642 11.9343 3.2642C12.4447 3.2642 12.8722 3.38352 13.2169 3.62216C13.565 3.8608 13.8218 4.18892 13.9875 4.60653H14.0671C14.2494 4.19886 14.5394 3.87405 14.9371 3.6321C15.3348 3.38684 15.8088 3.2642 16.359 3.2642C17.0517 3.2642 17.6168 3.4813 18.0543 3.91548C18.4951 4.34967 18.7155 5.00426 18.7155 5.87926V11H17.229V6.01847C17.229 5.50142 17.0882 5.12689 16.8064 4.89489C16.5247 4.66288 16.1883 4.54688 15.7972 4.54688C15.3133 4.54688 14.9371 4.69602 14.6686 4.99432C14.4002 5.2893 14.2659 5.6688 14.2659 6.13281V11H12.7844V5.92401C12.7844 5.50971 12.6551 5.17661 12.3966 4.92472C12.1381 4.67282 11.8017 4.54688 11.3874 4.54688C11.1057 4.54688 10.8455 4.62145 10.6069 4.7706C10.3715 4.91643 10.181 5.12026 10.0351 5.3821C9.8926 5.64394 9.82134 5.94721 9.82134 6.2919V11H8.33484ZM22.8302 11.169C22.3463 11.169 21.9088 11.0795 21.5177 10.9006C21.1266 10.7183 20.8167 10.4548 20.588 10.1101C20.3626 9.76539 20.2499 9.3428 20.2499 8.84233C20.2499 8.41146 20.3328 8.05682 20.4985 7.77841C20.6642 7.5 20.8879 7.27959 21.1697 7.11719C21.4514 6.95478 21.7663 6.83215 22.1143 6.74929C22.4623 6.66643 22.8169 6.60346 23.1782 6.56037C23.6356 6.50734 24.0068 6.46425 24.2918 6.43111C24.5769 6.39465 24.784 6.33665 24.9133 6.2571C25.0425 6.17756 25.1072 6.0483 25.1072 5.86932V5.83452C25.1072 5.40033 24.9845 5.06392 24.7393 4.82528C24.4973 4.58665 24.1361 4.46733 23.6555 4.46733C23.155 4.46733 22.7606 4.57836 22.4722 4.80043C22.1872 5.01918 21.99 5.26278 21.8806 5.53125L20.4836 5.21307C20.6493 4.74905 20.8913 4.37453 21.2094 4.08949C21.5309 3.80114 21.9005 3.59233 22.3181 3.46307C22.7357 3.33049 23.1749 3.2642 23.6356 3.2642C23.9405 3.2642 24.2637 3.30066 24.605 3.37358C24.9497 3.44318 25.2712 3.57244 25.5695 3.76136C25.8711 3.95028 26.1181 4.22041 26.3103 4.57173C26.5025 4.91974 26.5986 5.37216 26.5986 5.92898V11H25.1469V9.95597H25.0873C24.9912 10.1482 24.847 10.3371 24.6548 10.5227C24.4625 10.7083 24.2156 10.8625 23.914 10.9851C23.6124 11.1077 23.2511 11.169 22.8302 11.169ZM23.1533 9.97585C23.5643 9.97585 23.9156 9.89465 24.2073 9.73224C24.5023 9.56984 24.726 9.35772 24.8785 9.09588C25.0343 8.83073 25.1121 8.54735 25.1121 8.24574V7.26136C25.0591 7.31439 24.9564 7.36411 24.8039 7.41051C24.6548 7.4536 24.4841 7.49171 24.2918 7.52486C24.0996 7.55469 23.9123 7.58286 23.73 7.60938C23.5478 7.63258 23.3953 7.65246 23.2727 7.66903C22.9843 7.70549 22.7208 7.76681 22.4822 7.85298C22.2469 7.93916 22.0579 8.06345 21.9154 8.22585C21.7762 8.38494 21.7066 8.59706 21.7066 8.86222C21.7066 9.23011 21.8425 9.50852 22.1143 9.69744C22.3861 9.88305 22.7324 9.97585 23.1533 9.97585ZM28.4786 11V3.36364H29.9651V11H28.4786ZM29.2293 2.18537C28.9708 2.18537 28.7487 2.09919 28.5631 1.92685C28.3808 1.75118 28.2897 1.54238 28.2897 1.30043C28.2897 1.05516 28.3808 0.846354 28.5631 0.674005C28.7487 0.498342 28.9708 0.410511 29.2293 0.410511C29.4878 0.410511 29.7082 0.498342 29.8905 0.674005C30.0761 0.846354 30.1689 1.05516 30.1689 1.30043C30.1689 1.54238 30.0761 1.75118 29.8905 1.92685C29.7082 2.09919 29.4878 2.18537 29.2293 2.18537ZM33.3514 0.818182V11H31.8649V0.818182H33.3514ZM37.3642 6.54545L37.4586 4.44744L35.6887 5.58594L35.1468 4.64134L37.0261 3.68182L35.1468 2.7223L35.6887 1.7777L37.4586 2.91619L37.3642 0.818182H38.443L38.3485 2.91619L40.1184 1.7777L40.6603 2.7223L38.7811 3.68182L40.6603 4.64134L40.1184 5.58594L38.3485 4.44744L38.443 6.54545H37.3642Z" fill="#272D37"/>
</svg>
