<svg width="179" height="14" viewBox="0 0 179 14" fill="none" xmlns="http://www.w3.org/2000/svg">
<path d="M0.232955 11V0.818182H3.6733C4.47206 0.818182 5.125 0.962358 5.6321 1.25071C6.14252 1.53575 6.52036 1.92188 6.76562 2.40909C7.01089 2.89631 7.13352 3.43987 7.13352 4.03977C7.13352 4.63968 7.01089 5.1849 6.76562 5.67543C6.52367 6.16596 6.14915 6.55705 5.64205 6.84872C5.13494 7.13707 4.48532 7.28125 3.69318 7.28125H1.22727V6.1875H3.65341C4.20028 6.1875 4.63944 6.09304 4.97088 5.90412C5.30232 5.7152 5.54261 5.45999 5.69176 5.13849C5.84422 4.81368 5.92045 4.44744 5.92045 4.03977C5.92045 3.6321 5.84422 3.26752 5.69176 2.94602C5.54261 2.62453 5.30066 2.37263 4.96591 2.19034C4.63116 2.00473 4.18703 1.91193 3.63352 1.91193H1.46591V11H0.232955ZM10.0339 0.818182V11H8.86058V0.818182H10.0339ZM15.2846 11.1591C14.5488 11.1591 13.9141 10.9967 13.3804 10.6719C12.8501 10.3438 12.4408 9.88636 12.1525 9.29972C11.8674 8.70975 11.7249 8.02367 11.7249 7.24148C11.7249 6.45928 11.8674 5.76989 12.1525 5.1733C12.4408 4.57339 12.8418 4.10606 13.3556 3.77131C13.8726 3.43324 14.4758 3.2642 15.1652 3.2642C15.563 3.2642 15.9557 3.33049 16.3435 3.46307C16.7313 3.59564 17.0843 3.81108 17.4025 4.10938C17.7206 4.40436 17.9742 4.79545 18.1631 5.28267C18.352 5.76989 18.4465 6.36979 18.4465 7.08239V7.57955H12.5601V6.56534H17.2533C17.2533 6.13447 17.1671 5.75 16.9948 5.41193C16.8257 5.07386 16.5838 4.80705 16.2689 4.61151C15.9574 4.41596 15.5895 4.31818 15.1652 4.31818C14.6979 4.31818 14.2935 4.43419 13.9522 4.66619C13.6141 4.89489 13.3539 5.19318 13.1716 5.56108C12.9893 5.92898 12.8982 6.32339 12.8982 6.74432V7.42045C12.8982 7.99716 12.9976 8.48603 13.1965 8.88707C13.3987 9.2848 13.6787 9.58807 14.0367 9.79688C14.3946 10.0024 14.8106 10.1051 15.2846 10.1051C15.5928 10.1051 15.8712 10.062 16.1198 9.97585C16.3717 9.88636 16.5888 9.75379 16.7711 9.57812C16.9534 9.39915 17.0942 9.17708 17.1936 8.91193L18.3272 9.23011C18.2078 9.61458 18.0073 9.95265 17.7256 10.2443C17.4439 10.5327 17.0959 10.758 16.6816 10.9205C16.2673 11.0795 15.8016 11.1591 15.2846 11.1591ZM22.3784 11.179C21.8945 11.179 21.4554 11.0878 21.061 10.9055C20.6666 10.7199 20.3534 10.4531 20.1213 10.1051C19.8893 9.75379 19.7733 9.32955 19.7733 8.83239C19.7733 8.39489 19.8595 8.04025 20.0319 7.76847C20.2042 7.49337 20.4346 7.27794 20.7229 7.12216C21.0113 6.96638 21.3294 6.85038 21.6775 6.77415C22.0288 6.6946 22.3818 6.63163 22.7364 6.58523C23.2004 6.52557 23.5766 6.48082 23.865 6.45099C24.1566 6.41785 24.3687 6.36316 24.5013 6.28693C24.6372 6.2107 24.7051 6.07812 24.7051 5.8892V5.84943C24.7051 5.3589 24.5709 4.97775 24.3025 4.70597C24.0373 4.43419 23.6346 4.2983 23.0944 4.2983C22.5342 4.2983 22.0951 4.42093 21.7769 4.66619C21.4587 4.91146 21.235 5.1733 21.1057 5.4517L19.9921 5.05398C20.1909 4.58996 20.4561 4.22869 20.7875 3.97017C21.1223 3.70833 21.4869 3.52604 21.8813 3.4233C22.279 3.31723 22.6701 3.2642 23.0546 3.2642C23.2998 3.2642 23.5816 3.29403 23.8998 3.35369C24.2212 3.41004 24.5311 3.5277 24.8294 3.70668C25.131 3.88565 25.3813 4.15578 25.5801 4.51705C25.779 4.87831 25.8784 5.36222 25.8784 5.96875V11H24.7051V9.96591H24.6455C24.5659 10.1316 24.4334 10.3089 24.2478 10.4979C24.0622 10.6868 23.8152 10.8475 23.507 10.9801C23.1988 11.1127 22.8226 11.179 22.3784 11.179ZM22.5574 10.125C23.0214 10.125 23.4125 10.0339 23.7307 9.85156C24.0522 9.66927 24.2942 9.43395 24.4566 9.1456C24.6223 8.85724 24.7051 8.55398 24.7051 8.2358V7.16193C24.6554 7.22159 24.5461 7.27628 24.377 7.32599C24.2113 7.3724 24.0191 7.41383 23.8003 7.45028C23.5849 7.48343 23.3744 7.51326 23.1689 7.53977C22.9668 7.56297 22.8027 7.58286 22.6767 7.59943C22.3718 7.6392 22.0868 7.70384 21.8216 7.79332C21.5598 7.8795 21.3477 8.01042 21.1853 8.18608C21.0262 8.35843 20.9466 8.59375 20.9466 8.89205C20.9466 9.29972 21.0974 9.60795 21.399 9.81676C21.704 10.0223 22.0901 10.125 22.5574 10.125ZM33.329 5.07386L32.2751 5.37216C32.2088 5.1965 32.111 5.0258 31.9817 4.86009C31.8558 4.69105 31.6835 4.55185 31.4647 4.44247C31.246 4.3331 30.9659 4.27841 30.6245 4.27841C30.1572 4.27841 29.7677 4.38613 29.4562 4.60156C29.1479 4.81368 28.9938 5.08381 28.9938 5.41193C28.9938 5.7036 29.0999 5.93395 29.312 6.10298C29.5241 6.27202 29.8556 6.41288 30.3063 6.52557L31.4398 6.80398C32.1226 6.9697 32.6314 7.22325 32.9661 7.56463C33.3009 7.9027 33.4683 8.33854 33.4683 8.87216C33.4683 9.30966 33.3423 9.70076 33.0904 10.0455C32.8418 10.3902 32.4938 10.6619 32.0464 10.8608C31.5989 11.0597 31.0786 11.1591 30.4853 11.1591C29.7064 11.1591 29.0618 10.9901 28.5513 10.652C28.0409 10.3139 27.7178 9.82008 27.5819 9.17045L28.6955 8.89205C28.8016 9.30303 29.0021 9.61127 29.2971 9.81676C29.5954 10.0223 29.9848 10.125 30.4654 10.125C31.0123 10.125 31.4465 10.009 31.768 9.77699C32.0928 9.54167 32.2552 9.25994 32.2552 8.93182C32.2552 8.66667 32.1624 8.4446 31.9768 8.26562C31.7912 8.08333 31.5061 7.94744 31.1217 7.85795L29.8489 7.55966C29.1496 7.39394 28.6359 7.13707 28.3077 6.78906C27.9829 6.43774 27.8205 5.99858 27.8205 5.47159C27.8205 5.04072 27.9415 4.65956 28.1835 4.32812C28.4287 3.99669 28.7618 3.73651 29.1827 3.54758C29.607 3.35866 30.0876 3.2642 30.6245 3.2642C31.3802 3.2642 31.9735 3.42992 32.4043 3.76136C32.8385 4.0928 33.1468 4.5303 33.329 5.07386ZM38.3361 11.1591C37.6003 11.1591 36.9656 10.9967 36.432 10.6719C35.9017 10.3438 35.4924 9.88636 35.204 9.29972C34.919 8.70975 34.7765 8.02367 34.7765 7.24148C34.7765 6.45928 34.919 5.76989 35.204 5.1733C35.4924 4.57339 35.8934 4.10606 36.4071 3.77131C36.9242 3.43324 37.5274 3.2642 38.2168 3.2642C38.6145 3.2642 39.0073 3.33049 39.3951 3.46307C39.7828 3.59564 40.1358 3.81108 40.454 4.10938C40.7722 4.40436 41.0257 4.79545 41.2147 5.28267C41.4036 5.76989 41.498 6.36979 41.498 7.08239V7.57955H35.6117V6.56534H40.3049C40.3049 6.13447 40.2187 5.75 40.0463 5.41193C39.8773 5.07386 39.6354 4.80705 39.3205 4.61151C39.0089 4.41596 38.641 4.31818 38.2168 4.31818C37.7495 4.31818 37.3451 4.43419 37.0037 4.66619C36.6657 4.89489 36.4055 5.19318 36.2232 5.56108C36.0409 5.92898 35.9498 6.32339 35.9498 6.74432V7.42045C35.9498 7.99716 36.0492 8.48603 36.248 8.88707C36.4502 9.2848 36.7303 9.58807 37.0882 9.79688C37.4462 10.0024 37.8622 10.1051 38.3361 10.1051C38.6444 10.1051 38.9228 10.062 39.1713 9.97585C39.4232 9.88636 39.6403 9.75379 39.8226 9.57812C40.0049 9.39915 40.1458 9.17708 40.2452 8.91193L41.3787 9.23011C41.2594 9.61458 41.0589 9.95265 40.7772 10.2443C40.4954 10.5327 40.1474 10.758 39.7331 10.9205C39.3188 11.0795 38.8532 11.1591 38.3361 11.1591ZM50.2221 11.1591C49.4863 11.1591 48.8515 10.9967 48.3179 10.6719C47.7876 10.3438 47.3783 9.88636 47.0899 9.29972C46.8049 8.70975 46.6624 8.02367 46.6624 7.24148C46.6624 6.45928 46.8049 5.76989 47.0899 5.1733C47.3783 4.57339 47.7793 4.10606 48.2931 3.77131C48.8101 3.43324 49.4133 3.2642 50.1027 3.2642C50.5005 3.2642 50.8932 3.33049 51.281 3.46307C51.6688 3.59564 52.0218 3.81108 52.3399 4.10938C52.6581 4.40436 52.9117 4.79545 53.1006 5.28267C53.2895 5.76989 53.384 6.36979 53.384 7.08239V7.57955H47.4976V6.56534H52.1908C52.1908 6.13447 52.1046 5.75 51.9323 5.41193C51.7632 5.07386 51.5213 4.80705 51.2064 4.61151C50.8949 4.41596 50.527 4.31818 50.1027 4.31818C49.6354 4.31818 49.231 4.43419 48.8897 4.66619C48.5516 4.89489 48.2914 5.19318 48.1091 5.56108C47.9268 5.92898 47.8357 6.32339 47.8357 6.74432V7.42045C47.8357 7.99716 47.9351 8.48603 48.134 8.88707C48.3362 9.2848 48.6162 9.58807 48.9742 9.79688C49.3321 10.0024 49.7481 10.1051 50.2221 10.1051C50.5303 10.1051 50.8087 10.062 51.0573 9.97585C51.3092 9.88636 51.5263 9.75379 51.7086 9.57812C51.8908 9.39915 52.0317 9.17708 52.1311 8.91193L53.2647 9.23011C53.1453 9.61458 52.9448 9.95265 52.6631 10.2443C52.3814 10.5327 52.0334 10.758 51.6191 10.9205C51.2048 11.0795 50.7391 11.1591 50.2221 11.1591ZM56.2421 6.40625V11H55.0688V3.36364H56.2023V4.55682H56.3017C56.4807 4.16903 56.7525 3.85748 57.1171 3.62216C57.4817 3.38352 57.9523 3.2642 58.529 3.2642C59.0461 3.2642 59.4985 3.37027 59.8863 3.58239C60.274 3.79119 60.5757 4.10938 60.7911 4.53693C61.0065 4.96117 61.1142 5.49811 61.1142 6.14773V11H59.9409V6.22727C59.9409 5.62737 59.7852 5.16004 59.4736 4.82528C59.1621 4.48722 58.7345 4.31818 58.1909 4.31818C57.8164 4.31818 57.4817 4.39938 57.1867 4.56179C56.895 4.72419 56.6647 4.96117 56.4956 5.27273C56.3266 5.58428 56.2421 5.96212 56.2421 6.40625ZM66.4793 3.36364V4.35795H62.5219V3.36364H66.4793ZM63.6753 1.53409H64.8486V8.8125C64.8486 9.14394 64.8966 9.39252 64.9928 9.55824C65.0922 9.72064 65.2181 9.83002 65.3706 9.88636C65.5264 9.93939 65.6904 9.96591 65.8628 9.96591C65.992 9.96591 66.0981 9.95928 66.181 9.94602C66.2638 9.92945 66.3301 9.91619 66.3798 9.90625L66.6185 10.9602C66.5389 10.9901 66.4279 11.0199 66.2854 11.0497C66.1428 11.0829 65.9622 11.0994 65.7435 11.0994C65.412 11.0994 65.0872 11.0282 64.769 10.8857C64.4542 10.7431 64.1923 10.526 63.9835 10.2344C63.778 9.94271 63.6753 9.57481 63.6753 9.13068V1.53409ZM71.2638 11.1591C70.5281 11.1591 69.8933 10.9967 69.3597 10.6719C68.8294 10.3438 68.4201 9.88636 68.1317 9.29972C67.8467 8.70975 67.7042 8.02367 67.7042 7.24148C67.7042 6.45928 67.8467 5.76989 68.1317 5.1733C68.4201 4.57339 68.8211 4.10606 69.3349 3.77131C69.8519 3.43324 70.4551 3.2642 71.1445 3.2642C71.5423 3.2642 71.935 3.33049 72.3228 3.46307C72.7106 3.59564 73.0636 3.81108 73.3817 4.10938C73.6999 4.40436 73.9535 4.79545 74.1424 5.28267C74.3313 5.76989 74.4258 6.36979 74.4258 7.08239V7.57955H68.5394V6.56534H73.2326C73.2326 6.13447 73.1464 5.75 72.9741 5.41193C72.805 5.07386 72.5631 4.80705 72.2482 4.61151C71.9367 4.41596 71.5688 4.31818 71.1445 4.31818C70.6772 4.31818 70.2728 4.43419 69.9315 4.66619C69.5934 4.89489 69.3332 5.19318 69.1509 5.56108C68.9686 5.92898 68.8775 6.32339 68.8775 6.74432V7.42045C68.8775 7.99716 68.9769 8.48603 69.1758 8.88707C69.378 9.2848 69.658 9.58807 70.016 9.79688C70.3739 10.0024 70.7899 10.1051 71.2638 10.1051C71.5721 10.1051 71.8505 10.062 72.0991 9.97585C72.351 9.88636 72.5681 9.75379 72.7504 9.57812C72.9326 9.39915 73.0735 9.17708 73.1729 8.91193L74.3065 9.23011C74.1871 9.61458 73.9866 9.95265 73.7049 10.2443C73.4232 10.5327 73.0752 10.758 72.6609 10.9205C72.2466 11.0795 71.7809 11.1591 71.2638 11.1591ZM76.1106 11V3.36364H77.2441V4.51705H77.3237C77.4629 4.1392 77.7148 3.83262 78.0793 3.5973C78.4439 3.36198 78.8549 3.24432 79.3123 3.24432C79.3985 3.24432 79.5062 3.24597 79.6354 3.24929C79.7647 3.2526 79.8625 3.25758 79.9288 3.2642V4.45739C79.889 4.44744 79.7978 4.43253 79.6553 4.41264C79.5161 4.38944 79.3686 4.37784 79.2129 4.37784C78.8416 4.37784 78.5102 4.45573 78.2185 4.61151C77.9302 4.76397 77.7015 4.97609 77.5325 5.24787C77.3667 5.51634 77.2839 5.82292 77.2839 6.16761V11H76.1106ZM85.8127 13.8636C85.6139 13.8636 85.4366 13.8471 85.2808 13.8139C85.125 13.7841 85.0173 13.7543 84.9576 13.7244L85.2559 12.6903C85.541 12.7633 85.7929 12.7898 86.0116 12.7699C86.2304 12.75 86.4243 12.6522 86.5933 12.4766C86.7656 12.3042 86.9231 12.0241 87.0656 11.6364L87.2843 11.0398L84.4605 3.36364H85.7332L87.8412 9.44886H87.9207L90.0287 3.36364H91.3014L88.0599 12.1136C87.9141 12.508 87.7334 12.8345 87.518 13.093C87.3026 13.3549 87.0523 13.5488 86.7673 13.6747C86.4856 13.8007 86.1674 13.8636 85.8127 13.8636ZM95.5789 11.1591C94.8895 11.1591 94.2846 10.995 93.7642 10.6669C93.2472 10.3388 92.8428 9.87973 92.5512 9.28977C92.2628 8.69981 92.1186 8.01042 92.1186 7.22159C92.1186 6.42614 92.2628 5.73177 92.5512 5.13849C92.8428 4.54522 93.2472 4.08452 93.7642 3.75639C94.2846 3.42827 94.8895 3.2642 95.5789 3.2642C96.2683 3.2642 96.8715 3.42827 97.3885 3.75639C97.9089 4.08452 98.3132 4.54522 98.6016 5.13849C98.8933 5.73177 99.0391 6.42614 99.0391 7.22159C99.0391 8.01042 98.8933 8.69981 98.6016 9.28977C98.3132 9.87973 97.9089 10.3388 97.3885 10.6669C96.8715 10.995 96.2683 11.1591 95.5789 11.1591ZM95.5789 10.1051C96.1025 10.1051 96.5334 9.97088 96.8715 9.70241C97.2096 9.43395 97.4598 9.08097 97.6222 8.64347C97.7846 8.20597 97.8658 7.73201 97.8658 7.22159C97.8658 6.71117 97.7846 6.23556 97.6222 5.79474C97.4598 5.35393 97.2096 4.99763 96.8715 4.72585C96.5334 4.45407 96.1025 4.31818 95.5789 4.31818C95.0552 4.31818 94.6243 4.45407 94.2863 4.72585C93.9482 4.99763 93.698 5.35393 93.5355 5.79474C93.3731 6.23556 93.2919 6.71117 93.2919 7.22159C93.2919 7.73201 93.3731 8.20597 93.5355 8.64347C93.698 9.08097 93.9482 9.43395 94.2863 9.70241C94.6243 9.97088 95.0552 10.1051 95.5789 10.1051ZM105.543 7.87784V3.36364H106.716V11H105.543V9.70739H105.463C105.284 10.0952 105.006 10.425 104.628 10.6967C104.25 10.9652 103.773 11.0994 103.196 11.0994C102.719 11.0994 102.295 10.995 101.923 10.7862C101.552 10.5741 101.26 10.2559 101.048 9.83168C100.836 9.40412 100.73 8.86553 100.73 8.21591V3.36364H101.903V8.13636C101.903 8.69318 102.059 9.13731 102.371 9.46875C102.686 9.80019 103.087 9.96591 103.574 9.96591C103.866 9.96591 104.162 9.89134 104.464 9.74219C104.769 9.59304 105.024 9.36435 105.229 9.05611C105.438 8.74787 105.543 8.35511 105.543 7.87784ZM108.765 11V3.36364H109.898V4.51705H109.978C110.117 4.1392 110.369 3.83262 110.734 3.5973C111.098 3.36198 111.509 3.24432 111.967 3.24432C112.053 3.24432 112.16 3.24597 112.29 3.24929C112.419 3.2526 112.517 3.25758 112.583 3.2642V4.45739C112.543 4.44744 112.452 4.43253 112.31 4.41264C112.17 4.38944 112.023 4.37784 111.867 4.37784C111.496 4.37784 111.165 4.45573 110.873 4.61151C110.584 4.76397 110.356 4.97609 110.187 5.24787C110.021 5.51634 109.938 5.82292 109.938 6.16761V11H108.765ZM117.711 13.8636V3.36364H118.845V4.5767H118.984C119.07 4.44413 119.19 4.27509 119.342 4.0696C119.498 3.8608 119.72 3.67519 120.008 3.51278C120.3 3.34706 120.694 3.2642 121.191 3.2642C121.834 3.2642 122.401 3.42495 122.892 3.74645C123.382 4.06794 123.765 4.52367 124.04 5.11364C124.315 5.7036 124.453 6.39962 124.453 7.2017C124.453 8.01042 124.315 8.71141 124.04 9.30469C123.765 9.89465 123.384 10.352 122.897 10.6768C122.41 10.9983 121.848 11.1591 121.211 11.1591C120.721 11.1591 120.328 11.0779 120.033 10.9155C119.738 10.7498 119.511 10.5625 119.352 10.3537C119.193 10.1416 119.07 9.96591 118.984 9.8267H118.885V13.8636H117.711ZM118.865 7.18182C118.865 7.75852 118.949 8.26728 119.118 8.7081C119.287 9.1456 119.534 9.48864 119.859 9.73722C120.184 9.98248 120.582 10.1051 121.052 10.1051C121.543 10.1051 121.952 9.97585 122.28 9.71733C122.612 9.45549 122.86 9.10417 123.026 8.66335C123.195 8.21922 123.28 7.72538 123.28 7.18182C123.28 6.64489 123.197 6.16098 123.031 5.73011C122.869 5.29593 122.622 4.95289 122.29 4.70099C121.962 4.44579 121.549 4.31818 121.052 4.31818C120.575 4.31818 120.174 4.43916 119.849 4.68111C119.524 4.91974 119.279 5.2545 119.113 5.68537C118.948 6.11293 118.865 6.61174 118.865 7.18182ZM128.39 11.179C127.906 11.179 127.467 11.0878 127.072 10.9055C126.678 10.7199 126.365 10.4531 126.133 10.1051C125.901 9.75379 125.785 9.32955 125.785 8.83239C125.785 8.39489 125.871 8.04025 126.043 7.76847C126.216 7.49337 126.446 7.27794 126.734 7.12216C127.023 6.96638 127.341 6.85038 127.689 6.77415C128.04 6.6946 128.393 6.63163 128.748 6.58523C129.212 6.52557 129.588 6.48082 129.876 6.45099C130.168 6.41785 130.38 6.36316 130.513 6.28693C130.649 6.2107 130.716 6.07812 130.716 5.8892V5.84943C130.716 5.3589 130.582 4.97775 130.314 4.70597C130.049 4.43419 129.646 4.2983 129.106 4.2983C128.546 4.2983 128.106 4.42093 127.788 4.66619C127.47 4.91146 127.246 5.1733 127.117 5.4517L126.003 5.05398C126.202 4.58996 126.467 4.22869 126.799 3.97017C127.134 3.70833 127.498 3.52604 127.893 3.4233C128.29 3.31723 128.681 3.2642 129.066 3.2642C129.311 3.2642 129.593 3.29403 129.911 3.35369C130.233 3.41004 130.542 3.5277 130.841 3.70668C131.142 3.88565 131.393 4.15578 131.591 4.51705C131.79 4.87831 131.89 5.36222 131.89 5.96875V11H130.716V9.96591H130.657C130.577 10.1316 130.445 10.3089 130.259 10.4979C130.073 10.6868 129.827 10.8475 129.518 10.9801C129.21 11.1127 128.834 11.179 128.39 11.179ZM128.569 10.125C129.033 10.125 129.424 10.0339 129.742 9.85156C130.064 9.66927 130.305 9.43395 130.468 9.1456C130.634 8.85724 130.716 8.55398 130.716 8.2358V7.16193C130.667 7.22159 130.557 7.27628 130.388 7.32599C130.223 7.3724 130.03 7.41383 129.812 7.45028C129.596 7.48343 129.386 7.51326 129.18 7.53977C128.978 7.56297 128.814 7.58286 128.688 7.59943C128.383 7.6392 128.098 7.70384 127.833 7.79332C127.571 7.8795 127.359 8.01042 127.197 8.18608C127.037 8.35843 126.958 8.59375 126.958 8.89205C126.958 9.29972 127.109 9.60795 127.41 9.81676C127.715 10.0223 128.101 10.125 128.569 10.125ZM139.34 5.07386L138.286 5.37216C138.22 5.1965 138.122 5.0258 137.993 4.86009C137.867 4.69105 137.695 4.55185 137.476 4.44247C137.257 4.3331 136.977 4.27841 136.636 4.27841C136.169 4.27841 135.779 4.38613 135.468 4.60156C135.159 4.81368 135.005 5.08381 135.005 5.41193C135.005 5.7036 135.111 5.93395 135.323 6.10298C135.535 6.27202 135.867 6.41288 136.318 6.52557L137.451 6.80398C138.134 6.9697 138.643 7.22325 138.977 7.56463C139.312 7.9027 139.48 8.33854 139.48 8.87216C139.48 9.30966 139.354 9.70076 139.102 10.0455C138.853 10.3902 138.505 10.6619 138.058 10.8608C137.61 11.0597 137.09 11.1591 136.497 11.1591C135.718 11.1591 135.073 10.9901 134.563 10.652C134.052 10.3139 133.729 9.82008 133.593 9.17045L134.707 8.89205C134.813 9.30303 135.013 9.61127 135.308 9.81676C135.607 10.0223 135.996 10.125 136.477 10.125C137.024 10.125 137.458 10.009 137.779 9.77699C138.104 9.54167 138.267 9.25994 138.267 8.93182C138.267 8.66667 138.174 8.4446 137.988 8.26562C137.802 8.08333 137.517 7.94744 137.133 7.85795L135.86 7.55966C135.161 7.39394 134.647 7.13707 134.319 6.78906C133.994 6.43774 133.832 5.99858 133.832 5.47159C133.832 5.04072 133.953 4.65956 134.195 4.32812C134.44 3.99669 134.773 3.73651 135.194 3.54758C135.618 3.35866 136.099 3.2642 136.636 3.2642C137.392 3.2642 137.985 3.42992 138.416 3.76136C138.85 4.0928 139.158 4.5303 139.34 5.07386ZM146.555 5.07386L145.501 5.37216C145.435 5.1965 145.337 5.0258 145.208 4.86009C145.082 4.69105 144.909 4.55185 144.69 4.44247C144.472 4.3331 144.192 4.27841 143.85 4.27841C143.383 4.27841 142.994 4.38613 142.682 4.60156C142.374 4.81368 142.22 5.08381 142.22 5.41193C142.22 5.7036 142.326 5.93395 142.538 6.10298C142.75 6.27202 143.081 6.41288 143.532 6.52557L144.666 6.80398C145.348 6.9697 145.857 7.22325 146.192 7.56463C146.527 7.9027 146.694 8.33854 146.694 8.87216C146.694 9.30966 146.568 9.70076 146.316 10.0455C146.068 10.3902 145.72 10.6619 145.272 10.8608C144.825 11.0597 144.304 11.1591 143.711 11.1591C142.932 11.1591 142.288 10.9901 141.777 10.652C141.267 10.3139 140.944 9.82008 140.808 9.17045L141.921 8.89205C142.027 9.30303 142.228 9.61127 142.523 9.81676C142.821 10.0223 143.211 10.125 143.691 10.125C144.238 10.125 144.672 10.009 144.994 9.77699C145.319 9.54167 145.481 9.25994 145.481 8.93182C145.481 8.66667 145.388 8.4446 145.203 8.26562C145.017 8.08333 144.732 7.94744 144.347 7.85795L143.075 7.55966C142.375 7.39394 141.862 7.13707 141.534 6.78906C141.209 6.43774 141.046 5.99858 141.046 5.47159C141.046 5.04072 141.167 4.65956 141.409 4.32812C141.654 3.99669 141.988 3.73651 142.409 3.54758C142.833 3.35866 143.313 3.2642 143.85 3.2642C144.606 3.2642 145.199 3.42992 145.63 3.76136C146.064 4.0928 146.373 4.5303 146.555 5.07386ZM150.09 11L147.764 3.36364H148.997L150.647 9.21023H150.727L152.357 3.36364H153.61L155.221 9.19034H155.301L156.951 3.36364H158.184L155.857 11H154.704L153.033 5.13352H152.914L151.244 11H150.09ZM162.478 11.1591C161.788 11.1591 161.183 10.995 160.663 10.6669C160.146 10.3388 159.742 9.87973 159.45 9.28977C159.162 8.69981 159.017 8.01042 159.017 7.22159C159.017 6.42614 159.162 5.73177 159.45 5.13849C159.742 4.54522 160.146 4.08452 160.663 3.75639C161.183 3.42827 161.788 3.2642 162.478 3.2642C163.167 3.2642 163.77 3.42827 164.287 3.75639C164.808 4.08452 165.212 4.54522 165.5 5.13849C165.792 5.73177 165.938 6.42614 165.938 7.22159C165.938 8.01042 165.792 8.69981 165.5 9.28977C165.212 9.87973 164.808 10.3388 164.287 10.6669C163.77 10.995 163.167 11.1591 162.478 11.1591ZM162.478 10.1051C163.001 10.1051 163.432 9.97088 163.77 9.70241C164.108 9.43395 164.359 9.08097 164.521 8.64347C164.683 8.20597 164.765 7.73201 164.765 7.22159C164.765 6.71117 164.683 6.23556 164.521 5.79474C164.359 5.35393 164.108 4.99763 163.77 4.72585C163.432 4.45407 163.001 4.31818 162.478 4.31818C161.954 4.31818 161.523 4.45407 161.185 4.72585C160.847 4.99763 160.597 5.35393 160.434 5.79474C160.272 6.23556 160.191 6.71117 160.191 7.22159C160.191 7.73201 160.272 8.20597 160.434 8.64347C160.597 9.08097 160.847 9.43395 161.185 9.70241C161.523 9.97088 161.954 10.1051 162.478 10.1051ZM167.629 11V3.36364H168.762V4.51705H168.842C168.981 4.1392 169.233 3.83262 169.598 3.5973C169.962 3.36198 170.373 3.24432 170.831 3.24432C170.917 3.24432 171.025 3.24597 171.154 3.24929C171.283 3.2526 171.381 3.25758 171.447 3.2642V4.45739C171.407 4.44744 171.316 4.43253 171.174 4.41264C171.034 4.38944 170.887 4.37784 170.731 4.37784C170.36 4.37784 170.029 4.45573 169.737 4.61151C169.449 4.76397 169.22 4.97609 169.051 5.24787C168.885 5.51634 168.802 5.82292 168.802 6.16761V11H167.629ZM175.389 11.1591C174.753 11.1591 174.191 10.9983 173.704 10.6768C173.216 10.352 172.835 9.89465 172.56 9.30469C172.285 8.71141 172.148 8.01042 172.148 7.2017C172.148 6.39962 172.285 5.7036 172.56 5.11364C172.835 4.52367 173.218 4.06794 173.709 3.74645C174.199 3.42495 174.766 3.2642 175.409 3.2642C175.906 3.2642 176.299 3.34706 176.587 3.51278C176.879 3.67519 177.101 3.8608 177.253 4.0696C177.409 4.27509 177.53 4.44413 177.616 4.5767H177.716V0.818182H178.889V11H177.756V9.8267H177.616C177.53 9.96591 177.407 10.1416 177.248 10.3537C177.089 10.5625 176.862 10.7498 176.567 10.9155C176.272 11.0779 175.88 11.1591 175.389 11.1591ZM175.548 10.1051C176.019 10.1051 176.416 9.98248 176.741 9.73722C177.066 9.48864 177.313 9.1456 177.482 8.7081C177.651 8.26728 177.736 7.75852 177.736 7.18182C177.736 6.61174 177.653 6.11293 177.487 5.68537C177.321 5.2545 177.076 4.91974 176.751 4.68111C176.426 4.43916 176.025 4.31818 175.548 4.31818C175.051 4.31818 174.637 4.44579 174.305 4.70099C173.977 4.95289 173.73 5.29593 173.564 5.73011C173.402 6.16098 173.321 6.64489 173.321 7.18182C173.321 7.72538 173.404 8.21922 173.569 8.66335C173.738 9.10417 173.987 9.45549 174.315 9.71733C174.647 9.97585 175.058 10.1051 175.548 10.1051Z" fill="#5F6D7E"/>
</svg>
