<svg width="38" height="12" viewBox="0 0 38 12" fill="none" xmlns="http://www.w3.org/2000/svg">
<path d="M8.33665 0.818182V11H6.92472L1.74929 3.53267H1.65483V11H0.118608V0.818182H1.54048L6.72088 8.29545H6.81534V0.818182H8.33665ZM12.5806 11.169C12.0967 11.169 11.6592 11.0795 11.2681 10.9006C10.877 10.7183 10.5671 10.4548 10.3384 10.1101C10.113 9.76539 10.0003 9.3428 10.0003 8.84233C10.0003 8.41146 10.0832 8.05682 10.2489 7.77841C10.4146 7.5 10.6383 7.27959 10.9201 7.11719C11.2018 6.95478 11.5167 6.83215 11.8647 6.74929C12.2127 6.66643 12.5673 6.60346 12.9286 6.56037C13.386 6.50734 13.7572 6.46425 14.0422 6.43111C14.3273 6.39465 14.5344 6.33665 14.6637 6.2571C14.7929 6.17756 14.8576 6.0483 14.8576 5.86932V5.83452C14.8576 5.40033 14.7349 5.06392 14.4897 4.82528C14.2477 4.58665 13.8864 4.46733 13.4059 4.46733C12.9054 4.46733 12.511 4.57836 12.2226 4.80043C11.9376 5.01918 11.7404 5.26278 11.631 5.53125L10.234 5.21307C10.3997 4.74905 10.6417 4.37453 10.9598 4.08949C11.2813 3.80114 11.6509 3.59233 12.0685 3.46307C12.4861 3.33049 12.9253 3.2642 13.386 3.2642C13.6909 3.2642 14.0141 3.30066 14.3554 3.37358C14.7001 3.44318 15.0216 3.57244 15.3199 3.76136C15.6215 3.95028 15.8685 4.22041 16.0607 4.57173C16.2529 4.91974 16.349 5.37216 16.349 5.92898V11H14.8973V9.95597H14.8377C14.7416 10.1482 14.5974 10.3371 14.4051 10.5227C14.2129 10.7083 13.966 10.8625 13.6644 10.9851C13.3628 11.1077 13.0015 11.169 12.5806 11.169ZM12.9037 9.97585C13.3147 9.97585 13.666 9.89465 13.9577 9.73224C14.2527 9.56984 14.4764 9.35772 14.6289 9.09588C14.7846 8.83073 14.8625 8.54735 14.8625 8.24574V7.26136C14.8095 7.31439 14.7068 7.36411 14.5543 7.41051C14.4051 7.4536 14.2345 7.49171 14.0422 7.52486C13.85 7.55469 13.6627 7.58286 13.4804 7.60938C13.2981 7.63258 13.1457 7.65246 13.023 7.66903C12.7347 7.70549 12.4712 7.76681 12.2326 7.85298C11.9972 7.93916 11.8083 8.06345 11.6658 8.22585C11.5266 8.38494 11.457 8.59706 11.457 8.86222C11.457 9.23011 11.5929 9.50852 11.8647 9.69744C12.1364 9.88305 12.4828 9.97585 12.9037 9.97585ZM18.229 11V3.36364H19.6558V4.60653H19.7503C19.9094 4.18561 20.1696 3.85748 20.5308 3.62216C20.8921 3.38352 21.3246 3.2642 21.8284 3.2642C22.3388 3.2642 22.7664 3.38352 23.1111 3.62216C23.4591 3.8608 23.716 4.18892 23.8817 4.60653H23.9612C24.1435 4.19886 24.4335 3.87405 24.8312 3.6321C25.229 3.38684 25.7029 3.2642 26.2531 3.2642C26.9458 3.2642 27.5109 3.4813 27.9484 3.91548C28.3893 4.34967 28.6097 5.00426 28.6097 5.87926V11H27.1232V6.01847C27.1232 5.50142 26.9823 5.12689 26.7006 4.89489C26.4188 4.66288 26.0824 4.54688 25.6913 4.54688C25.2074 4.54688 24.8312 4.69602 24.5628 4.99432C24.2943 5.2893 24.1601 5.6688 24.1601 6.13281V11H22.6786V5.92401C22.6786 5.50971 22.5493 5.17661 22.2908 4.92472C22.0322 4.67282 21.6958 4.54688 21.2815 4.54688C20.9998 4.54688 20.7396 4.62145 20.501 4.7706C20.2657 4.91643 20.0751 5.12026 19.9293 5.3821C19.7867 5.64394 19.7155 5.94721 19.7155 6.2919V11H18.229ZM33.7932 11.1541C33.0409 11.1541 32.3929 10.9934 31.8493 10.6719C31.3091 10.3471 30.8915 9.89134 30.5965 9.30469C30.3048 8.71473 30.159 8.02367 30.159 7.23153C30.159 6.44934 30.3048 5.75994 30.5965 5.16335C30.8915 4.56676 31.3025 4.10109 31.8294 3.76633C32.3597 3.43158 32.9795 3.2642 33.6888 3.2642C34.1197 3.2642 34.5373 3.33546 34.9417 3.47798C35.346 3.6205 35.7089 3.84422 36.0304 4.14915C36.3519 4.45407 36.6055 4.85014 36.7911 5.33736C36.9767 5.82126 37.0695 6.40956 37.0695 7.10227V7.62926H30.9992V6.51562H35.6128C35.6128 6.12453 35.5333 5.77817 35.3742 5.47656C35.2151 5.17164 34.9914 4.93134 34.703 4.75568C34.418 4.58002 34.0832 4.49219 33.6988 4.49219C33.2811 4.49219 32.9166 4.59493 32.605 4.80043C32.2968 5.0026 32.0581 5.26776 31.8891 5.59588C31.7234 5.92069 31.6405 6.27367 31.6405 6.65483V7.52486C31.6405 8.03527 31.73 8.46946 31.909 8.82741C32.0913 9.18537 32.3448 9.45881 32.6696 9.64773C32.9944 9.83333 33.3739 9.92614 33.8081 9.92614C34.0899 9.92614 34.3467 9.88636 34.5787 9.80682C34.8107 9.72396 35.0113 9.60133 35.1803 9.43892C35.3493 9.27652 35.4786 9.07599 35.5681 8.83736L36.975 9.09091C36.8623 9.50521 36.6602 9.86813 36.3685 10.1797C36.0802 10.4879 35.7172 10.7282 35.2797 10.9006C34.8455 11.0696 34.35 11.1541 33.7932 11.1541Z" fill="#272D37"/>
</svg>
