<svg width="100" height="50" viewBox="0 0 100 50" fill="none" xmlns="http://www.w3.org/2000/svg">
<g filter="url(#filter0_d_1_4421)">
<rect x="2" y="1" width="96" height="46" rx="6" fill="#437EF7"/>
<path d="M30.0408 18.0909V29H28.283L23.1428 21.5692H23.0522V29H21.076V18.0909H22.8445L27.9794 25.527H28.0753V18.0909H30.0408ZM35.7311 29.1598C34.9108 29.1598 34.2023 28.9893 33.6057 28.6484C33.0127 28.304 32.5564 27.8175 32.2368 27.1889C31.9172 26.5568 31.7574 25.8129 31.7574 24.957C31.7574 24.1154 31.9172 23.3768 32.2368 22.7411C32.5599 22.1019 33.0109 21.6048 33.5898 21.2496C34.1686 20.891 34.8486 20.7116 35.6299 20.7116C36.1341 20.7116 36.61 20.7933 37.0574 20.9567C37.5084 21.1165 37.9062 21.3651 38.2506 21.7024C38.5986 22.0398 38.8721 22.4695 39.0709 22.9915C39.2698 23.5099 39.3692 24.1278 39.3692 24.8452V25.4364H32.6629V24.1367H37.5209C37.5173 23.7674 37.4374 23.4389 37.2812 23.1513C37.1249 22.8601 36.9065 22.631 36.626 22.4641C36.349 22.2972 36.0258 22.2138 35.6565 22.2138C35.2623 22.2138 34.9161 22.3097 34.6178 22.5014C34.3195 22.6896 34.0869 22.9382 33.92 23.2472C33.7567 23.5526 33.6732 23.8881 33.6697 24.2539V25.3885C33.6697 25.8643 33.7567 26.2727 33.9307 26.6136C34.1047 26.951 34.3479 27.2102 34.6604 27.3913C34.9729 27.5689 35.3387 27.6577 35.7577 27.6577C36.0383 27.6577 36.2922 27.6186 36.5194 27.5405C36.7467 27.4588 36.9438 27.3398 37.1107 27.1836C37.2776 27.0273 37.4037 26.8338 37.4889 26.603L39.2893 26.8054C39.1757 27.2812 38.9591 27.6967 38.6395 28.0518C38.3234 28.4034 37.9186 28.6768 37.425 28.8722C36.9314 29.0639 36.3667 29.1598 35.7311 29.1598ZM42.4015 20.8182L44.0527 23.8384L45.7306 20.8182H47.7708L45.3045 24.9091L47.8134 29H45.7839L44.0527 26.0543L42.3375 29H40.2921L42.785 24.9091L40.356 20.8182H42.4015ZM53.3478 20.8182V22.3097H48.6444V20.8182H53.3478ZM49.8056 18.858H51.7338V26.5391C51.7338 26.7983 51.7729 26.9972 51.851 27.1357C51.9327 27.2706 52.0392 27.3629 52.1706 27.4126C52.302 27.4624 52.4476 27.4872 52.6074 27.4872C52.7282 27.4872 52.8382 27.4783 52.9377 27.4606C53.0407 27.4428 53.1188 27.4268 53.1721 27.4126L53.497 28.9201C53.394 28.9556 53.2466 28.9947 53.0549 29.0373C52.8667 29.0799 52.6358 29.1048 52.3624 29.1119C51.8794 29.1261 51.4444 29.0533 51.0574 28.8935C50.6703 28.7301 50.3631 28.478 50.1358 28.1371C49.9121 27.7962 49.802 27.37 49.8056 26.8587V18.858Z" fill="white"/>
<path d="M68.3333 19L72.7441 23.4107C73.0695 23.7362 73.0695 24.2638 72.7441 24.5893L68.3333 29" stroke="white" stroke-width="1.67" stroke-linecap="round"/>
</g>
<defs>
<filter id="filter0_d_1_4421" x="0" y="0" width="100" height="50" filterUnits="userSpaceOnUse" color-interpolation-filters="sRGB">
<feFlood flood-opacity="0" result="BackgroundImageFix"/>
<feColorMatrix in="SourceAlpha" type="matrix" values="0 0 0 0 0 0 0 0 0 0 0 0 0 0 0 0 0 0 127 0" result="hardAlpha"/>
<feOffset dy="1"/>
<feGaussianBlur stdDeviation="1"/>
<feComposite in2="hardAlpha" operator="out"/>
<feColorMatrix type="matrix" values="0 0 0 0 0.0627451 0 0 0 0 0.0941176 0 0 0 0 0.156863 0 0 0 0.04 0"/>
<feBlend mode="normal" in2="BackgroundImageFix" result="effect1_dropShadow_1_4421"/>
<feBlend mode="normal" in="SourceGraphic" in2="effect1_dropShadow_1_4421" result="shape"/>
</filter>
</defs>
</svg>
