<svg width="71" height="12" viewBox="0 0 71 12" fill="none" xmlns="http://www.w3.org/2000/svg">
<path d="M0.118608 11V0.818182H3.74787C4.54001 0.818182 5.19626 0.962358 5.71662 1.25071C6.23698 1.53906 6.62642 1.93347 6.88494 2.43395C7.14347 2.93111 7.27273 3.49124 7.27273 4.11435C7.27273 4.74077 7.14181 5.30421 6.87997 5.80469C6.62145 6.30185 6.23035 6.69626 5.70668 6.98793C5.18632 7.27628 4.53172 7.42045 3.7429 7.42045H1.24716V6.1179H3.60369C4.10417 6.1179 4.51018 6.03172 4.82173 5.85938C5.13329 5.68371 5.36198 5.44508 5.50781 5.14347C5.65365 4.84186 5.72656 4.49882 5.72656 4.11435C5.72656 3.72988 5.65365 3.38849 5.50781 3.0902C5.36198 2.7919 5.13163 2.55824 4.81676 2.3892C4.50521 2.22017 4.09422 2.13565 3.58381 2.13565H1.65483V11H0.118608ZM11.0083 11.169C10.5244 11.169 10.0869 11.0795 9.69581 10.9006C9.30471 10.7183 8.99481 10.4548 8.76612 10.1101C8.54074 9.76539 8.42805 9.3428 8.42805 8.84233C8.42805 8.41146 8.51091 8.05682 8.67663 7.77841C8.84235 7.5 9.06607 7.27959 9.3478 7.11719C9.62952 6.95478 9.94439 6.83215 10.2924 6.74929C10.6404 6.66643 10.9951 6.60346 11.3563 6.56037C11.8137 6.50734 12.1849 6.46425 12.47 6.43111C12.755 6.39465 12.9621 6.33665 13.0914 6.2571C13.2207 6.17756 13.2853 6.0483 13.2853 5.86932V5.83452C13.2853 5.40033 13.1627 5.06392 12.9174 4.82528C12.6754 4.58665 12.3142 4.46733 11.8336 4.46733C11.3331 4.46733 10.9387 4.57836 10.6504 4.80043C10.3653 5.01918 10.1681 5.26278 10.0587 5.53125L8.66172 5.21307C8.82744 4.74905 9.06939 4.37453 9.38757 4.08949C9.70907 3.80114 10.0786 3.59233 10.4962 3.46307C10.9138 3.33049 11.353 3.2642 11.8137 3.2642C12.1186 3.2642 12.4418 3.30066 12.7832 3.37358C13.1279 3.44318 13.4494 3.57244 13.7477 3.76136C14.0493 3.95028 14.2962 4.22041 14.4884 4.57173C14.6807 4.91974 14.7768 5.37216 14.7768 5.92898V11H13.3251V9.95597H13.2654C13.1693 10.1482 13.0251 10.3371 12.8329 10.5227C12.6406 10.7083 12.3937 10.8625 12.0921 10.9851C11.7905 11.1077 11.4292 11.169 11.0083 11.169ZM11.3315 9.97585C11.7424 9.97585 12.0938 9.89465 12.3854 9.73224C12.6804 9.56984 12.9041 9.35772 13.0566 9.09588C13.2124 8.83073 13.2903 8.54735 13.2903 8.24574V7.26136C13.2372 7.31439 13.1345 7.36411 12.982 7.41051C12.8329 7.4536 12.6622 7.49171 12.47 7.52486C12.2777 7.55469 12.0905 7.58286 11.9082 7.60938C11.7259 7.63258 11.5734 7.65246 11.4508 7.66903C11.1624 7.70549 10.8989 7.76681 10.6603 7.85298C10.425 7.93916 10.2361 8.06345 10.0935 8.22585C9.95433 8.38494 9.88473 8.59706 9.88473 8.86222C9.88473 9.23011 10.0206 9.50852 10.2924 9.69744C10.5642 9.88305 10.9105 9.97585 11.3315 9.97585ZM22.379 5.22798L21.0317 5.46662C20.9754 5.29427 20.8859 5.13021 20.7632 4.97443C20.6439 4.81865 20.4815 4.69105 20.276 4.59162C20.0705 4.49219 19.8137 4.44247 19.5054 4.44247C19.0845 4.44247 18.7332 4.53693 18.4515 4.72585C18.1697 4.91146 18.0289 5.15175 18.0289 5.44673C18.0289 5.70194 18.1233 5.90743 18.3123 6.06321C18.5012 6.21899 18.8061 6.34659 19.227 6.44602L20.4401 6.72443C21.1427 6.88684 21.6664 7.13707 22.0111 7.47514C22.3558 7.81321 22.5282 8.25237 22.5282 8.79261C22.5282 9.25 22.3956 9.65767 22.1304 10.0156C21.8686 10.3703 21.5024 10.6487 21.0317 10.8509C20.5644 11.053 20.0225 11.1541 19.406 11.1541C18.5509 11.1541 17.8532 10.9718 17.313 10.6072C16.7727 10.2393 16.4413 9.71733 16.3186 9.04119L17.7554 8.82244C17.8449 9.19697 18.0289 9.48035 18.3073 9.67259C18.5857 9.86151 18.9486 9.95597 19.3961 9.95597C19.8833 9.95597 20.2727 9.85488 20.5644 9.6527C20.856 9.44721 21.0019 9.19697 21.0019 8.90199C21.0019 8.66335 20.9124 8.46283 20.7334 8.30043C20.5578 8.13802 20.2876 8.01539 19.923 7.93253L18.6304 7.64915C17.9178 7.48674 17.3908 7.22822 17.0495 6.87358C16.7114 6.51894 16.5424 6.06984 16.5424 5.52628C16.5424 5.07552 16.6683 4.68111 16.9202 4.34304C17.1721 4.00497 17.5201 3.74148 17.9642 3.55256C18.4084 3.36032 18.9171 3.2642 19.4905 3.2642C20.3158 3.2642 20.9654 3.44318 21.4394 3.80114C21.9133 4.15578 22.2266 4.63139 22.379 5.22798ZM29.7849 5.22798L28.4376 5.46662C28.3812 5.29427 28.2917 5.13021 28.1691 4.97443C28.0498 4.81865 27.8874 4.69105 27.6819 4.59162C27.4764 4.49219 27.2195 4.44247 26.9113 4.44247C26.4904 4.44247 26.139 4.53693 25.8573 4.72585C25.5756 4.91146 25.4347 5.15175 25.4347 5.44673C25.4347 5.70194 25.5292 5.90743 25.7181 6.06321C25.907 6.21899 26.212 6.34659 26.6329 6.44602L27.846 6.72443C28.5486 6.88684 29.0723 7.13707 29.417 7.47514C29.7617 7.81321 29.934 8.25237 29.934 8.79261C29.934 9.25 29.8014 9.65767 29.5363 10.0156C29.2745 10.3703 28.9082 10.6487 28.4376 10.8509C27.9702 11.053 27.4283 11.1541 26.8119 11.1541C25.9567 11.1541 25.2591 10.9718 24.7188 10.6072C24.1786 10.2393 23.8471 9.71733 23.7245 9.04119L25.1613 8.82244C25.2508 9.19697 25.4347 9.48035 25.7131 9.67259C25.9915 9.86151 26.3545 9.95597 26.8019 9.95597C27.2891 9.95597 27.6786 9.85488 27.9702 9.6527C28.2619 9.44721 28.4077 9.19697 28.4077 8.90199C28.4077 8.66335 28.3183 8.46283 28.1393 8.30043C27.9636 8.13802 27.6935 8.01539 27.3289 7.93253L26.0363 7.64915C25.3237 7.48674 24.7967 7.22822 24.4553 6.87358C24.1173 6.51894 23.9482 6.06984 23.9482 5.52628C23.9482 5.07552 24.0742 4.68111 24.3261 4.34304C24.578 4.00497 24.926 3.74148 25.3701 3.55256C25.8142 3.36032 26.323 3.2642 26.8964 3.2642C27.7217 3.2642 28.3713 3.44318 28.8452 3.80114C29.3192 4.15578 29.6324 4.63139 29.7849 5.22798ZM33.124 11L30.8768 3.36364H32.413L33.9095 8.97159H33.9841L35.4855 3.36364H37.0217L38.5132 8.94673H38.5877L40.0743 3.36364H41.6105L39.3683 11H37.852L36.3008 5.48651H36.1865L34.6353 11H33.124ZM45.9054 11.1541C45.1895 11.1541 44.5647 10.9901 44.0311 10.6619C43.4975 10.3338 43.0832 9.87476 42.7882 9.2848C42.4932 8.69484 42.3457 8.00544 42.3457 7.21662C42.3457 6.42448 42.4932 5.73177 42.7882 5.13849C43.0832 4.54522 43.4975 4.08452 44.0311 3.75639C44.5647 3.42827 45.1895 3.2642 45.9054 3.2642C46.6213 3.2642 47.246 3.42827 47.7797 3.75639C48.3133 4.08452 48.7276 4.54522 49.0225 5.13849C49.3175 5.73177 49.465 6.42448 49.465 7.21662C49.465 8.00544 49.3175 8.69484 49.0225 9.2848C48.7276 9.87476 48.3133 10.3338 47.7797 10.6619C47.246 10.9901 46.6213 11.1541 45.9054 11.1541ZM45.9103 9.90625C46.3743 9.90625 46.7588 9.78362 47.0637 9.53835C47.3687 9.29309 47.594 8.96662 47.7399 8.55895C47.889 8.15128 47.9636 7.70218 47.9636 7.21165C47.9636 6.72443 47.889 6.27699 47.7399 5.86932C47.594 5.45833 47.3687 5.12855 47.0637 4.87997C46.7588 4.63139 46.3743 4.5071 45.9103 4.5071C45.443 4.5071 45.0552 4.63139 44.747 4.87997C44.4421 5.12855 44.215 5.45833 44.0659 5.86932C43.92 6.27699 43.8471 6.72443 43.8471 7.21165C43.8471 7.70218 43.92 8.15128 44.0659 8.55895C44.215 8.96662 44.4421 9.29309 44.747 9.53835C45.0552 9.78362 45.443 9.90625 45.9103 9.90625ZM51.0243 11V3.36364H52.4611V4.5767H52.5406C52.6798 4.16572 52.9251 3.84257 53.2764 3.60724C53.6311 3.36861 54.0321 3.24929 54.4795 3.24929C54.5723 3.24929 54.6817 3.2526 54.8077 3.25923C54.9369 3.26586 55.038 3.27415 55.1109 3.28409V4.70597C55.0513 4.68939 54.9452 4.67116 54.7928 4.65128C54.6403 4.62808 54.4878 4.61648 54.3354 4.61648C53.984 4.61648 53.6708 4.69105 53.3957 4.8402C53.124 4.98603 52.9085 5.18987 52.7494 5.4517C52.5903 5.71023 52.5108 6.00521 52.5108 6.33665V11H51.0243ZM58.8826 11.1491C58.2661 11.1491 57.7159 10.9917 57.232 10.6768C56.7514 10.3587 56.3736 9.90625 56.0985 9.3196C55.8267 8.72964 55.6908 8.02202 55.6908 7.19673C55.6908 6.37145 55.8283 5.66548 56.1034 5.07884C56.3819 4.49219 56.763 4.04309 57.2469 3.73153C57.7308 3.41998 58.2793 3.2642 58.8925 3.2642C59.3665 3.2642 59.7476 3.34375 60.036 3.50284C60.3276 3.65862 60.553 3.84091 60.7121 4.04972C60.8745 4.25852 61.0005 4.44247 61.0899 4.60156H61.1794V0.818182H62.6659V11H61.2142V9.81179H61.0899C61.0005 9.9742 60.8712 10.1598 60.7022 10.3686C60.5364 10.5774 60.3078 10.7597 60.0161 10.9155C59.7244 11.0713 59.3466 11.1491 58.8826 11.1491ZM59.2107 9.88139C59.6382 9.88139 59.9995 9.7687 60.2945 9.54332C60.5928 9.31463 60.8182 8.99811 60.9706 8.59375C61.1264 8.18939 61.2043 7.71875 61.2043 7.18182C61.2043 6.65151 61.1281 6.1875 60.9756 5.78977C60.8231 5.39205 60.5994 5.08215 60.3044 4.86009C60.0095 4.63802 59.6449 4.52699 59.2107 4.52699C58.7632 4.52699 58.3904 4.64299 58.0921 4.875C57.7938 5.10701 57.5684 5.42353 57.4159 5.82457C57.2668 6.22562 57.1922 6.67803 57.1922 7.18182C57.1922 7.69223 57.2685 8.15128 57.4209 8.55895C57.5734 8.96662 57.7988 9.28977 58.0971 9.52841C58.3987 9.76373 58.7699 9.88139 59.2107 9.88139ZM66.8005 6.54545L66.895 4.44744L65.1251 5.58594L64.5832 4.64134L66.4624 3.68182L64.5832 2.7223L65.1251 1.7777L66.895 2.91619L66.8005 0.818182H67.8793L67.7849 2.91619L69.5548 1.7777L70.0967 2.7223L68.2174 3.68182L70.0967 4.64134L69.5548 5.58594L67.7849 4.44744L67.8793 6.54545H66.8005Z" fill="#272D37"/>
</svg>
