<svg width="168" height="12" viewBox="0 0 168 12" fill="none" xmlns="http://www.w3.org/2000/svg">
<path d="M0.232955 11V0.818182H3.6733C4.47206 0.818182 5.125 0.962358 5.6321 1.25071C6.14252 1.53575 6.52036 1.92188 6.76562 2.40909C7.01089 2.89631 7.13352 3.43987 7.13352 4.03977C7.13352 4.63968 7.01089 5.1849 6.76562 5.67543C6.52367 6.16596 6.14915 6.55705 5.64205 6.84872C5.13494 7.13707 4.48532 7.28125 3.69318 7.28125H1.22727V6.1875H3.65341C4.20028 6.1875 4.63944 6.09304 4.97088 5.90412C5.30232 5.7152 5.54261 5.45999 5.69176 5.13849C5.84422 4.81368 5.92045 4.44744 5.92045 4.03977C5.92045 3.6321 5.84422 3.26752 5.69176 2.94602C5.54261 2.62453 5.30066 2.37263 4.96591 2.19034C4.63116 2.00473 4.18703 1.91193 3.63352 1.91193H1.46591V11H0.232955ZM11.1077 11.179C10.6238 11.179 10.1847 11.0878 9.79027 10.9055C9.39586 10.7199 9.08265 10.4531 8.85064 10.1051C8.61863 9.75379 8.50263 9.32955 8.50263 8.83239C8.50263 8.39489 8.5888 8.04025 8.76115 7.76847C8.9335 7.49337 9.16385 7.27794 9.4522 7.12216C9.74055 6.96638 10.0587 6.85038 10.4067 6.77415C10.7581 6.6946 11.1111 6.63163 11.4657 6.58523C11.9297 6.52557 12.3059 6.48082 12.5942 6.45099C12.8859 6.41785 13.098 6.36316 13.2306 6.28693C13.3665 6.2107 13.4344 6.07812 13.4344 5.8892V5.84943C13.4344 5.3589 13.3002 4.97775 13.0317 4.70597C12.7666 4.43419 12.3639 4.2983 11.8237 4.2983C11.2635 4.2983 10.8244 4.42093 10.5062 4.66619C10.188 4.91146 9.96428 5.1733 9.83501 5.4517L8.72138 5.05398C8.92024 4.58996 9.18539 4.22869 9.51683 3.97017C9.85159 3.70833 10.2162 3.52604 10.6106 3.4233C11.0083 3.31723 11.3994 3.2642 11.7839 3.2642C12.0291 3.2642 12.3109 3.29403 12.629 3.35369C12.9505 3.41004 13.2604 3.5277 13.5587 3.70668C13.8603 3.88565 14.1106 4.15578 14.3094 4.51705C14.5083 4.87831 14.6077 5.36222 14.6077 5.96875V11H13.4344V9.96591H13.3748C13.2952 10.1316 13.1627 10.3089 12.9771 10.4979C12.7915 10.6868 12.5445 10.8475 12.2363 10.9801C11.9281 11.1127 11.5519 11.179 11.1077 11.179ZM11.2867 10.125C11.7507 10.125 12.1418 10.0339 12.46 9.85156C12.7815 9.66927 13.0235 9.43395 13.1859 9.1456C13.3516 8.85724 13.4344 8.55398 13.4344 8.2358V7.16193C13.3847 7.22159 13.2754 7.27628 13.1063 7.32599C12.9406 7.3724 12.7484 7.41383 12.5296 7.45028C12.3142 7.48343 12.1037 7.51326 11.8982 7.53977C11.696 7.56297 11.532 7.58286 11.406 7.59943C11.1011 7.6392 10.8161 7.70384 10.5509 7.79332C10.2891 7.8795 10.077 8.01042 9.91456 8.18608C9.75547 8.35843 9.67592 8.59375 9.67592 8.89205C9.67592 9.29972 9.82673 9.60795 10.1283 9.81676C10.4333 10.0223 10.8194 10.125 11.2867 10.125ZM22.0583 5.07386L21.0044 5.37216C20.9381 5.1965 20.8403 5.0258 20.711 4.86009C20.5851 4.69105 20.4127 4.55185 20.194 4.44247C19.9752 4.3331 19.6952 4.27841 19.3538 4.27841C18.8865 4.27841 18.497 4.38613 18.1855 4.60156C17.8772 4.81368 17.7231 5.08381 17.7231 5.41193C17.7231 5.7036 17.8292 5.93395 18.0413 6.10298C18.2534 6.27202 18.5849 6.41288 19.0356 6.52557L20.1691 6.80398C20.8519 6.9697 21.3607 7.22325 21.6954 7.56463C22.0302 7.9027 22.1975 8.33854 22.1975 8.87216C22.1975 9.30966 22.0716 9.70076 21.8197 10.0455C21.5711 10.3902 21.2231 10.6619 20.7757 10.8608C20.3282 11.0597 19.8079 11.1591 19.2146 11.1591C18.4357 11.1591 17.7911 10.9901 17.2806 10.652C16.7702 10.3139 16.4471 9.82008 16.3112 9.17045L17.4248 8.89205C17.5309 9.30303 17.7314 9.61127 18.0264 9.81676C18.3247 10.0223 18.7141 10.125 19.1947 10.125C19.7416 10.125 20.1758 10.009 20.4973 9.77699C20.8221 9.54167 20.9845 9.25994 20.9845 8.93182C20.9845 8.66667 20.8917 8.4446 20.7061 8.26562C20.5205 8.08333 20.2354 7.94744 19.851 7.85795L18.5782 7.55966C17.8789 7.39394 17.3652 7.13707 17.037 6.78906C16.7122 6.43774 16.5498 5.99858 16.5498 5.47159C16.5498 5.04072 16.6708 4.65956 16.9127 4.32812C17.158 3.99669 17.4911 3.73651 17.912 3.54758C18.3363 3.35866 18.8169 3.2642 19.3538 3.2642C20.1095 3.2642 20.7028 3.42992 21.1336 3.76136C21.5678 4.0928 21.8761 4.5303 22.0583 5.07386ZM29.2728 5.07386L28.2188 5.37216C28.1525 5.1965 28.0548 5.0258 27.9255 4.86009C27.7996 4.69105 27.6272 4.55185 27.4085 4.44247C27.1897 4.3331 26.9096 4.27841 26.5683 4.27841C26.1009 4.27841 25.7115 4.38613 25.3999 4.60156C25.0917 4.81368 24.9376 5.08381 24.9376 5.41193C24.9376 5.7036 25.0436 5.93395 25.2558 6.10298C25.4679 6.27202 25.7993 6.41288 26.2501 6.52557L27.3836 6.80398C28.0664 6.9697 28.5751 7.22325 28.9099 7.56463C29.2446 7.9027 29.412 8.33854 29.412 8.87216C29.412 9.30966 29.2861 9.70076 29.0342 10.0455C28.7856 10.3902 28.4376 10.6619 27.9901 10.8608C27.5427 11.0597 27.0223 11.1591 26.429 11.1591C25.6502 11.1591 25.0055 10.9901 24.4951 10.652C23.9847 10.3139 23.6615 9.82008 23.5256 9.17045L24.6393 8.89205C24.7453 9.30303 24.9459 9.61127 25.2408 9.81676C25.5391 10.0223 25.9286 10.125 26.4092 10.125C26.956 10.125 27.3902 10.009 27.7117 9.77699C28.0365 9.54167 28.1989 9.25994 28.1989 8.93182C28.1989 8.66667 28.1061 8.4446 27.9205 8.26562C27.7349 8.08333 27.4499 7.94744 27.0654 7.85795L25.7927 7.55966C25.0933 7.39394 24.5796 7.13707 24.2515 6.78906C23.9267 6.43774 23.7643 5.99858 23.7643 5.47159C23.7643 5.04072 23.8853 4.65956 24.1272 4.32812C24.3725 3.99669 24.7056 3.73651 25.1265 3.54758C25.5507 3.35866 26.0313 3.2642 26.5683 3.2642C27.3239 3.2642 27.9172 3.42992 28.3481 3.76136C28.7823 4.0928 29.0905 4.5303 29.2728 5.07386ZM32.8083 11L30.4816 3.36364H31.7145L33.3651 9.21023H33.4446L35.0753 3.36364H36.3282L37.939 9.19034H38.0185L39.6691 3.36364H40.902L38.5753 11H37.4219L35.7515 5.13352H35.6321L33.9617 11H32.8083ZM45.1957 11.1591C44.5063 11.1591 43.9014 10.995 43.381 10.6669C42.864 10.3388 42.4596 9.87973 42.168 9.28977C41.8796 8.69981 41.7354 8.01042 41.7354 7.22159C41.7354 6.42614 41.8796 5.73177 42.168 5.13849C42.4596 4.54522 42.864 4.08452 43.381 3.75639C43.9014 3.42827 44.5063 3.2642 45.1957 3.2642C45.8851 3.2642 46.4883 3.42827 47.0053 3.75639C47.5257 4.08452 47.93 4.54522 48.2184 5.13849C48.5101 5.73177 48.6559 6.42614 48.6559 7.22159C48.6559 8.01042 48.5101 8.69981 48.2184 9.28977C47.93 9.87973 47.5257 10.3388 47.0053 10.6669C46.4883 10.995 45.8851 11.1591 45.1957 11.1591ZM45.1957 10.1051C45.7193 10.1051 46.1502 9.97088 46.4883 9.70241C46.8263 9.43395 47.0766 9.08097 47.239 8.64347C47.4014 8.20597 47.4826 7.73201 47.4826 7.22159C47.4826 6.71117 47.4014 6.23556 47.239 5.79474C47.0766 5.35393 46.8263 4.99763 46.4883 4.72585C46.1502 4.45407 45.7193 4.31818 45.1957 4.31818C44.672 4.31818 44.2411 4.45407 43.9031 4.72585C43.565 4.99763 43.3147 5.35393 43.1523 5.79474C42.9899 6.23556 42.9087 6.71117 42.9087 7.22159C42.9087 7.73201 42.9899 8.20597 43.1523 8.64347C43.3147 9.08097 43.565 9.43395 43.9031 9.70241C44.2411 9.97088 44.672 10.1051 45.1957 10.1051ZM50.3469 11V3.36364H51.4804V4.51705H51.56C51.6992 4.1392 51.9511 3.83262 52.3157 3.5973C52.6802 3.36198 53.0912 3.24432 53.5486 3.24432C53.6348 3.24432 53.7425 3.24597 53.8718 3.24929C54.001 3.2526 54.0988 3.25758 54.1651 3.2642V4.45739C54.1253 4.44744 54.0342 4.43253 53.8917 4.41264C53.7525 4.38944 53.605 4.37784 53.4492 4.37784C53.078 4.37784 52.7465 4.45573 52.4549 4.61151C52.1665 4.76397 51.9378 4.97609 51.7688 5.24787C51.6031 5.51634 51.5202 5.82292 51.5202 6.16761V11H50.3469ZM58.107 11.1591C57.4706 11.1591 56.9088 10.9983 56.4216 10.6768C55.9344 10.352 55.5533 9.89465 55.2782 9.30469C55.0031 8.71141 54.8655 8.01042 54.8655 7.2017C54.8655 6.39962 55.0031 5.7036 55.2782 5.11364C55.5533 4.52367 55.9361 4.06794 56.4266 3.74645C56.9171 3.42495 57.4839 3.2642 58.1269 3.2642C58.624 3.2642 59.0168 3.34706 59.3051 3.51278C59.5968 3.67519 59.8189 3.8608 59.9713 4.0696C60.1271 4.27509 60.2481 4.44413 60.3343 4.5767H60.4337V0.818182H61.607V11H60.4735V9.8267H60.3343C60.2481 9.96591 60.1255 10.1416 59.9664 10.3537C59.8073 10.5625 59.5802 10.7498 59.2853 10.9155C58.9903 11.0779 58.5975 11.1591 58.107 11.1591ZM58.2661 10.1051C58.7367 10.1051 59.1345 9.98248 59.4593 9.73722C59.7841 9.48864 60.031 9.1456 60.2 8.7081C60.3691 8.26728 60.4536 7.75852 60.4536 7.18182C60.4536 6.61174 60.3707 6.11293 60.205 5.68537C60.0393 5.2545 59.794 4.91974 59.4692 4.68111C59.1444 4.43916 58.7434 4.31818 58.2661 4.31818C57.7689 4.31818 57.3546 4.44579 57.0232 4.70099C56.6951 4.95289 56.4481 5.29593 56.2824 5.73011C56.12 6.16098 56.0388 6.64489 56.0388 7.18182C56.0388 7.72538 56.1217 8.21922 56.2874 8.66335C56.4564 9.10417 56.705 9.45549 57.0331 9.71733C57.3646 9.97585 57.7756 10.1051 58.2661 10.1051ZM69.2279 5.07386L68.1739 5.37216C68.1076 5.1965 68.0098 5.0258 67.8806 4.86009C67.7546 4.69105 67.5823 4.55185 67.3635 4.44247C67.1448 4.3331 66.8647 4.27841 66.5233 4.27841C66.056 4.27841 65.6666 4.38613 65.355 4.60156C65.0468 4.81368 64.8926 5.08381 64.8926 5.41193C64.8926 5.7036 64.9987 5.93395 65.2108 6.10298C65.423 6.27202 65.7544 6.41288 66.2051 6.52557L67.3387 6.80398C68.0214 6.9697 68.5302 7.22325 68.865 7.56463C69.1997 7.9027 69.3671 8.33854 69.3671 8.87216C69.3671 9.30966 69.2411 9.70076 68.9892 10.0455C68.7407 10.3902 68.3927 10.6619 67.9452 10.8608C67.4978 11.0597 66.9774 11.1591 66.3841 11.1591C65.6052 11.1591 64.9606 10.9901 64.4502 10.652C63.9398 10.3139 63.6166 9.82008 63.4807 9.17045L64.5944 8.89205C64.7004 9.30303 64.9009 9.61127 65.1959 9.81676C65.4942 10.0223 65.8837 10.125 66.3642 10.125C66.9111 10.125 67.3453 10.009 67.6668 9.77699C67.9916 9.54167 68.154 9.25994 68.154 8.93182C68.154 8.66667 68.0612 8.4446 67.8756 8.26562C67.69 8.08333 67.405 7.94744 67.0205 7.85795L65.7478 7.55966C65.0484 7.39394 64.5347 7.13707 64.2066 6.78906C63.8818 6.43774 63.7194 5.99858 63.7194 5.47159C63.7194 5.04072 63.8403 4.65956 64.0823 4.32812C64.3275 3.99669 64.6606 3.73651 65.0816 3.54758C65.5058 3.35866 65.9864 3.2642 66.5233 3.2642C67.279 3.2642 67.8723 3.42992 68.3032 3.76136C68.7373 4.0928 69.0456 4.5303 69.2279 5.07386ZM76.044 6.40625V11H74.8707V3.36364H76.0043V4.55682H76.1037C76.2827 4.16903 76.5545 3.85748 76.919 3.62216C77.2836 3.38352 77.7543 3.2642 78.331 3.2642C78.848 3.2642 79.3004 3.37027 79.6882 3.58239C80.076 3.79119 80.3776 4.10938 80.593 4.53693C80.8085 4.96117 80.9162 5.49811 80.9162 6.14773V11H79.7429V6.22727C79.7429 5.62737 79.5871 5.16004 79.2756 4.82528C78.964 4.48722 78.5365 4.31818 77.9929 4.31818C77.6184 4.31818 77.2836 4.39938 76.9886 4.56179C76.697 4.72419 76.4666 4.96117 76.2976 5.27273C76.1286 5.58428 76.044 5.96212 76.044 6.40625ZM86.1619 11.1591C85.4261 11.1591 84.7914 10.9967 84.2578 10.6719C83.7275 10.3438 83.3181 9.88636 83.0298 9.29972C82.7448 8.70975 82.6022 8.02367 82.6022 7.24148C82.6022 6.45928 82.7448 5.76989 83.0298 5.1733C83.3181 4.57339 83.7192 4.10606 84.2329 3.77131C84.75 3.43324 85.3532 3.2642 86.0426 3.2642C86.4403 3.2642 86.8331 3.33049 87.2208 3.46307C87.6086 3.59564 87.9616 3.81108 88.2798 4.10938C88.598 4.40436 88.8515 4.79545 89.0404 5.28267C89.2294 5.76989 89.3238 6.36979 89.3238 7.08239V7.57955H83.4375V6.56534H88.1306C88.1306 6.13447 88.0445 5.75 87.8721 5.41193C87.7031 5.07386 87.4611 4.80705 87.1463 4.61151C86.8347 4.41596 86.4668 4.31818 86.0426 4.31818C85.5753 4.31818 85.1709 4.43419 84.8295 4.66619C84.4914 4.89489 84.2313 5.19318 84.049 5.56108C83.8667 5.92898 83.7755 6.32339 83.7755 6.74432V7.42045C83.7755 7.99716 83.875 8.48603 84.0738 8.88707C84.276 9.2848 84.5561 9.58807 84.914 9.79688C85.272 10.0024 85.6879 10.1051 86.1619 10.1051C86.4701 10.1051 86.7485 10.062 86.9971 9.97585C87.249 9.88636 87.4661 9.75379 87.6484 9.57812C87.8307 9.39915 87.9716 9.17708 88.071 8.91193L89.2045 9.23011C89.0852 9.61458 88.8847 9.95265 88.6029 10.2443C88.3212 10.5327 87.9732 10.758 87.5589 10.9205C87.1446 11.0795 86.6789 11.1591 86.1619 11.1591ZM94.2103 11.1591C93.4745 11.1591 92.8398 10.9967 92.3062 10.6719C91.7759 10.3438 91.3666 9.88636 91.0782 9.29972C90.7932 8.70975 90.6507 8.02367 90.6507 7.24148C90.6507 6.45928 90.7932 5.76989 91.0782 5.1733C91.3666 4.57339 91.7676 4.10606 92.2814 3.77131C92.7984 3.43324 93.4016 3.2642 94.091 3.2642C94.4887 3.2642 94.8815 3.33049 95.2693 3.46307C95.6571 3.59564 96.0101 3.81108 96.3282 4.10938C96.6464 4.40436 96.9 4.79545 97.0889 5.28267C97.2778 5.76989 97.3723 6.36979 97.3723 7.08239V7.57955H91.4859V6.56534H96.1791C96.1791 6.13447 96.0929 5.75 95.9206 5.41193C95.7515 5.07386 95.5096 4.80705 95.1947 4.61151C94.8832 4.41596 94.5153 4.31818 94.091 4.31818C93.6237 4.31818 93.2193 4.43419 92.878 4.66619C92.5399 4.89489 92.2797 5.19318 92.0974 5.56108C91.9151 5.92898 91.824 6.32339 91.824 6.74432V7.42045C91.824 7.99716 91.9234 8.48603 92.1223 8.88707C92.3244 9.2848 92.6045 9.58807 92.9625 9.79688C93.3204 10.0024 93.7364 10.1051 94.2103 10.1051C94.5186 10.1051 94.797 10.062 95.0456 9.97585C95.2975 9.88636 95.5146 9.75379 95.6968 9.57812C95.8791 9.39915 96.02 9.17708 96.1194 8.91193L97.253 9.23011C97.1336 9.61458 96.9331 9.95265 96.6514 10.2443C96.3697 10.5327 96.0217 10.758 95.6074 10.9205C95.1931 11.0795 94.7274 11.1591 94.2103 11.1591ZM101.941 11.1591C101.304 11.1591 100.742 10.9983 100.255 10.6768C99.768 10.352 99.3868 9.89465 99.1118 9.30469C98.8367 8.71141 98.6991 8.01042 98.6991 7.2017C98.6991 6.39962 98.8367 5.7036 99.1118 5.11364C99.3868 4.52367 99.7697 4.06794 100.26 3.74645C100.751 3.42495 101.317 3.2642 101.96 3.2642C102.458 3.2642 102.85 3.34706 103.139 3.51278C103.43 3.67519 103.652 3.8608 103.805 4.0696C103.961 4.27509 104.082 4.44413 104.168 4.5767H104.267V0.818182H105.441V11H104.307V9.8267H104.168C104.082 9.96591 103.959 10.1416 103.8 10.3537C103.641 10.5625 103.414 10.7498 103.119 10.9155C102.824 11.0779 102.431 11.1591 101.941 11.1591ZM102.1 10.1051C102.57 10.1051 102.968 9.98248 103.293 9.73722C103.618 9.48864 103.865 9.1456 104.034 8.7081C104.203 8.26728 104.287 7.75852 104.287 7.18182C104.287 6.61174 104.204 6.11293 104.039 5.68537C103.873 5.2545 103.628 4.91974 103.303 4.68111C102.978 4.43916 102.577 4.31818 102.1 4.31818C101.603 4.31818 101.188 4.44579 100.857 4.70099C100.529 4.95289 100.282 5.29593 100.116 5.73011C99.9536 6.16098 99.8724 6.64489 99.8724 7.18182C99.8724 7.72538 99.9553 8.21922 100.121 8.66335C100.29 9.10417 100.539 9.45549 100.867 9.71733C101.198 9.97585 101.609 10.1051 102.1 10.1051ZM114.811 3.36364V4.35795H110.854V3.36364H114.811ZM112.007 1.53409H113.18V8.8125C113.18 9.14394 113.228 9.39252 113.324 9.55824C113.424 9.72064 113.55 9.83002 113.702 9.88636C113.858 9.93939 114.022 9.96591 114.194 9.96591C114.324 9.96591 114.43 9.95928 114.513 9.94602C114.595 9.92945 114.662 9.91619 114.711 9.90625L114.95 10.9602C114.871 10.9901 114.76 11.0199 114.617 11.0497C114.474 11.0829 114.294 11.0994 114.075 11.0994C113.744 11.0994 113.419 11.0282 113.101 10.8857C112.786 10.7431 112.524 10.526 112.315 10.2344C112.11 9.94271 112.007 9.57481 112.007 9.13068V1.53409ZM119.496 11.1591C118.807 11.1591 118.202 10.995 117.681 10.6669C117.164 10.3388 116.76 9.87973 116.468 9.28977C116.18 8.69981 116.036 8.01042 116.036 7.22159C116.036 6.42614 116.18 5.73177 116.468 5.13849C116.76 4.54522 117.164 4.08452 117.681 3.75639C118.202 3.42827 118.807 3.2642 119.496 3.2642C120.185 3.2642 120.789 3.42827 121.306 3.75639C121.826 4.08452 122.23 4.54522 122.519 5.13849C122.81 5.73177 122.956 6.42614 122.956 7.22159C122.956 8.01042 122.81 8.69981 122.519 9.28977C122.23 9.87973 121.826 10.3388 121.306 10.6669C120.789 10.995 120.185 11.1591 119.496 11.1591ZM119.496 10.1051C120.02 10.1051 120.451 9.97088 120.789 9.70241C121.127 9.43395 121.377 9.08097 121.539 8.64347C121.702 8.20597 121.783 7.73201 121.783 7.22159C121.783 6.71117 121.702 6.23556 121.539 5.79474C121.377 5.35393 121.127 4.99763 120.789 4.72585C120.451 4.45407 120.02 4.31818 119.496 4.31818C118.972 4.31818 118.542 4.45407 118.203 4.72585C117.865 4.99763 117.615 5.35393 117.453 5.79474C117.29 6.23556 117.209 6.71117 117.209 7.22159C117.209 7.73201 117.29 8.20597 117.453 8.64347C117.615 9.08097 117.865 9.43395 118.203 9.70241C118.542 9.97088 118.972 10.1051 119.496 10.1051ZM128.485 11V3.36364H129.618V4.55682H129.718C129.877 4.14915 130.134 3.83262 130.488 3.60724C130.843 3.37855 131.269 3.2642 131.766 3.2642C132.27 3.2642 132.689 3.37855 133.024 3.60724C133.362 3.83262 133.625 4.14915 133.814 4.55682H133.894C134.089 4.16241 134.383 3.84919 134.774 3.61719C135.165 3.38187 135.634 3.2642 136.181 3.2642C136.864 3.2642 137.422 3.47798 137.856 3.90554C138.29 4.32978 138.508 4.991 138.508 5.8892V11H137.334V5.8892C137.334 5.32576 137.18 4.92306 136.872 4.68111C136.564 4.43916 136.201 4.31818 135.783 4.31818C135.246 4.31818 134.83 4.48059 134.535 4.8054C134.24 5.12689 134.093 5.53456 134.093 6.02841V11H132.9V5.76989C132.9 5.3357 132.759 4.98603 132.477 4.72088C132.195 4.45241 131.832 4.31818 131.388 4.31818C131.083 4.31818 130.798 4.39938 130.533 4.56179C130.271 4.72419 130.059 4.94957 129.897 5.23793C129.738 5.52296 129.658 5.85275 129.658 6.22727V11H128.485ZM142.8 11.179C142.316 11.179 141.877 11.0878 141.482 10.9055C141.088 10.7199 140.775 10.4531 140.543 10.1051C140.311 9.75379 140.195 9.32955 140.195 8.83239C140.195 8.39489 140.281 8.04025 140.453 7.76847C140.626 7.49337 140.856 7.27794 141.144 7.12216C141.433 6.96638 141.751 6.85038 142.099 6.77415C142.45 6.6946 142.803 6.63163 143.158 6.58523C143.622 6.52557 143.998 6.48082 144.286 6.45099C144.578 6.41785 144.79 6.36316 144.923 6.28693C145.059 6.2107 145.127 6.07812 145.127 5.8892V5.84943C145.127 5.3589 144.992 4.97775 144.724 4.70597C144.459 4.43419 144.056 4.2983 143.516 4.2983C142.956 4.2983 142.517 4.42093 142.198 4.66619C141.88 4.91146 141.656 5.1733 141.527 5.4517L140.414 5.05398C140.612 4.58996 140.878 4.22869 141.209 3.97017C141.544 3.70833 141.908 3.52604 142.303 3.4233C142.701 3.31723 143.092 3.2642 143.476 3.2642C143.721 3.2642 144.003 3.29403 144.321 3.35369C144.643 3.41004 144.953 3.5277 145.251 3.70668C145.553 3.88565 145.803 4.15578 146.002 4.51705C146.201 4.87831 146.3 5.36222 146.3 5.96875V11H145.127V9.96591H145.067C144.987 10.1316 144.855 10.3089 144.669 10.4979C144.484 10.6868 144.237 10.8475 143.928 10.9801C143.62 11.1127 143.244 11.179 142.8 11.179ZM142.979 10.125C143.443 10.125 143.834 10.0339 144.152 9.85156C144.474 9.66927 144.716 9.43395 144.878 9.1456C145.044 8.85724 145.127 8.55398 145.127 8.2358V7.16193C145.077 7.22159 144.968 7.27628 144.799 7.32599C144.633 7.3724 144.441 7.41383 144.222 7.45028C144.006 7.48343 143.796 7.51326 143.59 7.53977C143.388 7.56297 143.224 7.58286 143.098 7.59943C142.793 7.6392 142.508 7.70384 142.243 7.79332C141.981 7.8795 141.769 8.01042 141.607 8.18608C141.448 8.35843 141.368 8.59375 141.368 8.89205C141.368 9.29972 141.519 9.60795 141.821 9.81676C142.125 10.0223 142.512 10.125 142.979 10.125ZM151.662 3.36364V4.35795H147.705V3.36364H151.662ZM148.858 1.53409H150.032V8.8125C150.032 9.14394 150.08 9.39252 150.176 9.55824C150.275 9.72064 150.401 9.83002 150.554 9.88636C150.71 9.93939 150.874 9.96591 151.046 9.96591C151.175 9.96591 151.281 9.95928 151.364 9.94602C151.447 9.92945 151.513 9.91619 151.563 9.90625L151.802 10.9602C151.722 10.9901 151.611 11.0199 151.469 11.0497C151.326 11.0829 151.145 11.0994 150.927 11.0994C150.595 11.0994 150.27 11.0282 149.952 10.8857C149.637 10.7431 149.376 10.526 149.167 10.2344C148.961 9.94271 148.858 9.57481 148.858 9.13068V1.53409ZM156.348 11.1591C155.632 11.1591 155.015 10.9901 154.498 10.652C153.981 10.3139 153.583 9.84825 153.305 9.25497C153.027 8.66169 152.887 7.9839 152.887 7.22159C152.887 6.44602 153.03 5.7616 153.315 5.16832C153.603 4.57173 154.004 4.10606 154.518 3.77131C155.035 3.43324 155.638 3.2642 156.328 3.2642C156.865 3.2642 157.349 3.36364 157.779 3.5625C158.21 3.76136 158.563 4.03977 158.838 4.39773C159.113 4.75568 159.284 5.1733 159.35 5.65057H158.177C158.088 5.30256 157.889 4.99432 157.581 4.72585C157.276 4.45407 156.865 4.31818 156.348 4.31818C155.89 4.31818 155.489 4.4375 155.144 4.67614C154.803 4.91146 154.536 5.24455 154.344 5.67543C154.155 6.10298 154.061 6.60511 154.061 7.18182C154.061 7.77178 154.153 8.28551 154.339 8.72301C154.528 9.16051 154.793 9.50024 155.135 9.74219C155.479 9.98414 155.884 10.1051 156.348 10.1051C156.653 10.1051 156.929 10.0521 157.178 9.94602C157.426 9.83996 157.637 9.6875 157.809 9.48864C157.982 9.28977 158.104 9.05114 158.177 8.77273H159.35C159.284 9.22348 159.12 9.6295 158.858 9.99077C158.6 10.3487 158.257 10.6338 157.829 10.8459C157.405 11.0547 156.911 11.1591 156.348 11.1591ZM162.139 6.40625V11H160.966V0.818182H162.139V4.55682H162.238C162.417 4.16241 162.686 3.84919 163.044 3.61719C163.405 3.38187 163.886 3.2642 164.486 3.2642C165.006 3.2642 165.462 3.36861 165.853 3.57741C166.244 3.78291 166.547 4.09943 166.763 4.52699C166.981 4.95123 167.091 5.49148 167.091 6.14773V11H165.917V6.22727C165.917 5.62074 165.76 5.15175 165.445 4.82031C165.134 4.48556 164.701 4.31818 164.147 4.31818C163.763 4.31818 163.418 4.39938 163.113 4.56179C162.812 4.72419 162.573 4.96117 162.397 5.27273C162.225 5.58428 162.139 5.96212 162.139 6.40625Z" fill="#5F6D7E"/>
</svg>
