<svg width="58" height="12" viewBox="0 0 58 12" fill="none" xmlns="http://www.w3.org/2000/svg">
<path d="M0.837574 11V0.818182H4.65576C5.43795 0.818182 6.0942 0.964015 6.62451 1.25568C7.15812 1.54735 7.56082 1.94839 7.8326 2.45881C8.1077 2.96591 8.24525 3.54261 8.24525 4.18892C8.24525 4.84186 8.1077 5.42187 7.8326 5.92898C7.55751 6.43608 7.1515 6.83546 6.61456 7.12713C6.07763 7.41548 5.41641 7.55966 4.6309 7.55966H2.10036V6.04332H4.38232C4.83971 6.04332 5.21423 5.96378 5.5059 5.80469C5.79757 5.6456 6.013 5.42685 6.15221 5.14844C6.29472 4.87003 6.36598 4.55019 6.36598 4.18892C6.36598 3.82765 6.29472 3.50947 6.15221 3.23438C6.013 2.95928 5.79591 2.7455 5.50093 2.59304C5.20926 2.43726 4.83308 2.35938 4.37238 2.35938H2.68203V11H0.837574ZM12.9391 11.1491C12.1735 11.1491 11.5123 10.9901 10.9554 10.6719C10.4019 10.3504 9.97603 9.89631 9.67774 9.30966C9.37944 8.7197 9.23029 8.02533 9.23029 7.22656C9.23029 6.44105 9.37944 5.75166 9.67774 5.15838C9.97935 4.56179 10.4003 4.09777 10.9405 3.76633C11.4808 3.43158 12.1155 3.2642 12.8446 3.2642C13.3153 3.2642 13.7594 3.34044 14.177 3.4929C14.598 3.64205 14.9692 3.87405 15.2907 4.18892C15.6155 4.50379 15.8707 4.90483 16.0563 5.39205C16.2419 5.87595 16.3347 6.45265 16.3347 7.12216V7.67401H10.0755V6.46094H14.6096C14.6062 6.11624 14.5317 5.80966 14.3858 5.54119C14.24 5.26941 14.0362 5.05563 13.7743 4.89986C13.5158 4.74408 13.2142 4.66619 12.8695 4.66619C12.5016 4.66619 12.1784 4.75568 11.9 4.93466C11.6216 5.11032 11.4045 5.34233 11.2488 5.63068C11.0963 5.91572 11.0184 6.22893 11.0151 6.57031V7.62926C11.0151 8.07339 11.0963 8.45455 11.2587 8.77273C11.4211 9.08759 11.6481 9.32955 11.9398 9.49858C12.2315 9.6643 12.5729 9.74716 12.964 9.74716C13.2258 9.74716 13.4628 9.7107 13.6749 9.63778C13.887 9.56155 14.071 9.45052 14.2267 9.30469C14.3825 9.15885 14.5002 8.97822 14.5797 8.76278L16.2601 8.9517C16.1541 9.39583 15.9519 9.78362 15.6536 10.1151C15.3586 10.4432 14.9808 10.6984 14.5201 10.8807C14.0594 11.0597 13.5324 11.1491 12.9391 11.1491ZM17.7572 11V3.36364H19.5023V4.63636H19.5818C19.721 4.19555 19.9597 3.85582 20.2977 3.61719C20.6391 3.37524 21.0286 3.25426 21.4661 3.25426C21.5655 3.25426 21.6765 3.25923 21.7992 3.26918C21.9251 3.2758 22.0295 3.2874 22.1124 3.30398V4.95952C22.0361 4.933 21.9152 4.9098 21.7494 4.88991C21.587 4.86671 21.4296 4.85511 21.2771 4.85511C20.949 4.85511 20.654 4.92637 20.3922 5.06889C20.1337 5.2081 19.9298 5.40199 19.7807 5.65057C19.6315 5.89915 19.557 6.18584 19.557 6.51065V11H17.7572ZM29.2435 5.3821L27.6029 5.56108C27.5565 5.39536 27.4753 5.23958 27.3593 5.09375C27.2466 4.94792 27.0942 4.83026 26.9019 4.74077C26.7097 4.65128 26.4744 4.60653 26.196 4.60653C25.8214 4.60653 25.5066 4.68774 25.2514 4.85014C24.9995 5.01255 24.8752 5.22301 24.8785 5.48153C24.8752 5.7036 24.9564 5.88423 25.1221 6.02344C25.2911 6.16264 25.5695 6.27699 25.9573 6.36648L27.2599 6.64489C27.9824 6.80066 28.5193 7.04759 28.8707 7.38565C29.2253 7.72372 29.4043 8.16619 29.4076 8.71307C29.4043 9.19366 29.2634 9.6179 28.985 9.9858C28.7099 10.3504 28.3271 10.6354 27.8366 10.8409C27.3461 11.0464 26.7826 11.1491 26.1462 11.1491C25.2116 11.1491 24.4592 10.9536 23.8891 10.5625C23.3191 10.1681 22.9793 9.61955 22.87 8.9169L24.6249 8.74787C24.7045 9.09257 24.8735 9.35275 25.132 9.52841C25.3906 9.70407 25.727 9.7919 26.1413 9.7919C26.5688 9.7919 26.9119 9.70407 27.1704 9.52841C27.4322 9.35275 27.5631 9.13565 27.5631 8.87713C27.5631 8.65838 27.4786 8.47775 27.3096 8.33523C27.1439 8.19271 26.8853 8.08333 26.534 8.0071L25.2315 7.73366C24.499 7.5812 23.9571 7.32434 23.6058 6.96307C23.2544 6.59848 23.0804 6.13778 23.0837 5.58097C23.0804 5.11032 23.208 4.70265 23.4666 4.35795C23.7284 4.00994 24.0913 3.74148 24.5553 3.55256C25.0227 3.36032 25.5612 3.2642 26.1711 3.2642C27.066 3.2642 27.7703 3.45478 28.284 3.83594C28.8011 4.21709 29.1209 4.73248 29.2435 5.3821ZM34.1226 11.1491C33.3769 11.1491 32.7305 10.9851 32.1837 10.657C31.6368 10.3288 31.2126 9.86979 30.9109 9.27983C30.6126 8.68987 30.4635 8.00047 30.4635 7.21165C30.4635 6.42282 30.6126 5.73177 30.9109 5.13849C31.2126 4.54522 31.6368 4.08452 32.1837 3.75639C32.7305 3.42827 33.3769 3.2642 34.1226 3.2642C34.8683 3.2642 35.5146 3.42827 36.0615 3.75639C36.6084 4.08452 37.031 4.54522 37.3293 5.13849C37.6309 5.73177 37.7817 6.42282 37.7817 7.21165C37.7817 8.00047 37.6309 8.68987 37.3293 9.27983C37.031 9.86979 36.6084 10.3288 36.0615 10.657C35.5146 10.9851 34.8683 11.1491 34.1226 11.1491ZM34.1325 9.70739C34.5369 9.70739 34.875 9.59635 35.1467 9.37429C35.4185 9.14891 35.6207 8.8473 35.7533 8.46946C35.8892 8.09162 35.9571 7.67069 35.9571 7.20668C35.9571 6.73935 35.8892 6.31676 35.7533 5.93892C35.6207 5.55777 35.4185 5.2545 35.1467 5.02912C34.875 4.80374 34.5369 4.69105 34.1325 4.69105C33.7182 4.69105 33.3735 4.80374 33.0984 5.02912C32.8267 5.2545 32.6228 5.55777 32.4869 5.93892C32.3544 6.31676 32.2881 6.73935 32.2881 7.20668C32.2881 7.67069 32.3544 8.09162 32.4869 8.46946C32.6228 8.8473 32.8267 9.14891 33.0984 9.37429C33.3735 9.59635 33.7182 9.70739 34.1325 9.70739ZM41.0089 6.52557V11H39.2092V3.36364H40.9294V4.66122H41.0189C41.1945 4.23366 41.4746 3.89394 41.8591 3.64205C42.2468 3.39015 42.7258 3.2642 43.2958 3.2642C43.8228 3.2642 44.2819 3.37689 44.673 3.60227C45.0674 3.82765 45.3723 4.15412 45.5878 4.58168C45.8065 5.00923 45.9142 5.52794 45.9109 6.13778V11H44.1112V6.41619C44.1112 5.90578 43.9786 5.50639 43.7135 5.21804C43.4516 4.92969 43.0887 4.78551 42.6247 4.78551C42.3098 4.78551 42.0297 4.85511 41.7845 4.99432C41.5425 5.13021 41.352 5.32741 41.2128 5.58594C41.0769 5.84446 41.0089 6.15767 41.0089 6.52557ZM49.8379 11.1541C49.354 11.1541 48.9182 11.0679 48.5304 10.8956C48.1459 10.7199 47.841 10.4614 47.6156 10.12C47.3935 9.77865 47.2825 9.35772 47.2825 8.85724C47.2825 8.42637 47.362 8.07008 47.5211 7.78835C47.6802 7.50663 47.8973 7.28125 48.1724 7.11222C48.4475 6.94318 48.7574 6.81558 49.1021 6.7294C49.4501 6.63991 49.8097 6.57528 50.1809 6.53551C50.6284 6.48911 50.9913 6.44768 51.2697 6.41122C51.5481 6.37145 51.7503 6.31179 51.8762 6.23224C52.0055 6.14938 52.0701 6.02178 52.0701 5.84943V5.8196C52.0701 5.44508 51.9591 5.15507 51.737 4.94957C51.515 4.74408 51.1951 4.64134 50.7775 4.64134C50.3367 4.64134 49.987 4.73745 49.7285 4.92969C49.4733 5.12192 49.301 5.34896 49.2115 5.6108L47.5311 5.37216C47.6637 4.90814 47.8824 4.52036 48.1873 4.20881C48.4923 3.89394 48.8651 3.65862 49.3059 3.50284C49.7467 3.34375 50.234 3.2642 50.7676 3.2642C51.1355 3.2642 51.5017 3.30729 51.8663 3.39347C52.2309 3.47964 52.564 3.62216 52.8656 3.82102C53.1672 4.01657 53.4092 4.28338 53.5914 4.62145C53.7771 4.95952 53.8699 5.3821 53.8699 5.8892V11H52.1397V9.95099H52.0801C51.9707 10.1631 51.8166 10.362 51.6177 10.5476C51.4222 10.7299 51.1753 10.8774 50.877 10.9901C50.582 11.0994 50.2356 11.1541 49.8379 11.1541ZM50.3052 9.83168C50.6665 9.83168 50.9797 9.76042 51.2449 9.6179C51.51 9.47206 51.7138 9.27983 51.8564 9.04119C52.0022 8.80256 52.0751 8.54238 52.0751 8.26065V7.3608C52.0188 7.4072 51.9226 7.45028 51.7868 7.49006C51.6542 7.52983 51.505 7.56463 51.3393 7.59446C51.1736 7.62429 51.0095 7.6508 50.8471 7.67401C50.6847 7.69721 50.5439 7.71709 50.4245 7.73366C50.1561 7.77012 49.9158 7.82978 49.7037 7.91264C49.4915 7.9955 49.3242 8.11151 49.2015 8.26065C49.0789 8.40649 49.0176 8.59541 49.0176 8.82741C49.0176 9.15885 49.1386 9.40909 49.3805 9.57812C49.6225 9.74716 49.9307 9.83168 50.3052 9.83168ZM57.3792 0.818182V11H55.5795V0.818182H57.3792Z" fill="#5F6D7E"/>
</svg>
