<svg width="214" height="14" viewBox="0 0 214 14" fill="none" xmlns="http://www.w3.org/2000/svg">
<path d="M0.232955 11V0.818182H3.6733C4.47206 0.818182 5.125 0.962358 5.6321 1.25071C6.14252 1.53575 6.52036 1.92188 6.76562 2.40909C7.01089 2.89631 7.13352 3.43987 7.13352 4.03977C7.13352 4.63968 7.01089 5.1849 6.76562 5.67543C6.52367 6.16596 6.14915 6.55705 5.64205 6.84872C5.13494 7.13707 4.48532 7.28125 3.69318 7.28125H1.22727V6.1875H3.65341C4.20028 6.1875 4.63944 6.09304 4.97088 5.90412C5.30232 5.7152 5.54261 5.45999 5.69176 5.13849C5.84422 4.81368 5.92045 4.44744 5.92045 4.03977C5.92045 3.6321 5.84422 3.26752 5.69176 2.94602C5.54261 2.62453 5.30066 2.37263 4.96591 2.19034C4.63116 2.00473 4.18703 1.91193 3.63352 1.91193H1.46591V11H0.232955ZM10.0339 0.818182V11H8.86058V0.818182H10.0339ZM15.2846 11.1591C14.5488 11.1591 13.9141 10.9967 13.3804 10.6719C12.8501 10.3438 12.4408 9.88636 12.1525 9.29972C11.8674 8.70975 11.7249 8.02367 11.7249 7.24148C11.7249 6.45928 11.8674 5.76989 12.1525 5.1733C12.4408 4.57339 12.8418 4.10606 13.3556 3.77131C13.8726 3.43324 14.4758 3.2642 15.1652 3.2642C15.563 3.2642 15.9557 3.33049 16.3435 3.46307C16.7313 3.59564 17.0843 3.81108 17.4025 4.10938C17.7206 4.40436 17.9742 4.79545 18.1631 5.28267C18.352 5.76989 18.4465 6.36979 18.4465 7.08239V7.57955H12.5601V6.56534H17.2533C17.2533 6.13447 17.1671 5.75 16.9948 5.41193C16.8257 5.07386 16.5838 4.80705 16.2689 4.61151C15.9574 4.41596 15.5895 4.31818 15.1652 4.31818C14.6979 4.31818 14.2935 4.43419 13.9522 4.66619C13.6141 4.89489 13.3539 5.19318 13.1716 5.56108C12.9893 5.92898 12.8982 6.32339 12.8982 6.74432V7.42045C12.8982 7.99716 12.9976 8.48603 13.1965 8.88707C13.3987 9.2848 13.6787 9.58807 14.0367 9.79688C14.3946 10.0024 14.8106 10.1051 15.2846 10.1051C15.5928 10.1051 15.8712 10.062 16.1198 9.97585C16.3717 9.88636 16.5888 9.75379 16.7711 9.57812C16.9534 9.39915 17.0942 9.17708 17.1936 8.91193L18.3272 9.23011C18.2078 9.61458 18.0073 9.95265 17.7256 10.2443C17.4439 10.5327 17.0959 10.758 16.6816 10.9205C16.2673 11.0795 15.8016 11.1591 15.2846 11.1591ZM22.3784 11.179C21.8945 11.179 21.4554 11.0878 21.061 10.9055C20.6666 10.7199 20.3534 10.4531 20.1213 10.1051C19.8893 9.75379 19.7733 9.32955 19.7733 8.83239C19.7733 8.39489 19.8595 8.04025 20.0319 7.76847C20.2042 7.49337 20.4346 7.27794 20.7229 7.12216C21.0113 6.96638 21.3294 6.85038 21.6775 6.77415C22.0288 6.6946 22.3818 6.63163 22.7364 6.58523C23.2004 6.52557 23.5766 6.48082 23.865 6.45099C24.1566 6.41785 24.3687 6.36316 24.5013 6.28693C24.6372 6.2107 24.7051 6.07812 24.7051 5.8892V5.84943C24.7051 5.3589 24.5709 4.97775 24.3025 4.70597C24.0373 4.43419 23.6346 4.2983 23.0944 4.2983C22.5342 4.2983 22.0951 4.42093 21.7769 4.66619C21.4587 4.91146 21.235 5.1733 21.1057 5.4517L19.9921 5.05398C20.1909 4.58996 20.4561 4.22869 20.7875 3.97017C21.1223 3.70833 21.4869 3.52604 21.8813 3.4233C22.279 3.31723 22.6701 3.2642 23.0546 3.2642C23.2998 3.2642 23.5816 3.29403 23.8998 3.35369C24.2212 3.41004 24.5311 3.5277 24.8294 3.70668C25.131 3.88565 25.3813 4.15578 25.5801 4.51705C25.779 4.87831 25.8784 5.36222 25.8784 5.96875V11H24.7051V9.96591H24.6455C24.5659 10.1316 24.4334 10.3089 24.2478 10.4979C24.0622 10.6868 23.8152 10.8475 23.507 10.9801C23.1988 11.1127 22.8226 11.179 22.3784 11.179ZM22.5574 10.125C23.0214 10.125 23.4125 10.0339 23.7307 9.85156C24.0522 9.66927 24.2942 9.43395 24.4566 9.1456C24.6223 8.85724 24.7051 8.55398 24.7051 8.2358V7.16193C24.6554 7.22159 24.5461 7.27628 24.377 7.32599C24.2113 7.3724 24.0191 7.41383 23.8003 7.45028C23.5849 7.48343 23.3744 7.51326 23.1689 7.53977C22.9668 7.56297 22.8027 7.58286 22.6767 7.59943C22.3718 7.6392 22.0868 7.70384 21.8216 7.79332C21.5598 7.8795 21.3477 8.01042 21.1853 8.18608C21.0262 8.35843 20.9466 8.59375 20.9466 8.89205C20.9466 9.29972 21.0974 9.60795 21.399 9.81676C21.704 10.0223 22.0901 10.125 22.5574 10.125ZM33.329 5.07386L32.2751 5.37216C32.2088 5.1965 32.111 5.0258 31.9817 4.86009C31.8558 4.69105 31.6835 4.55185 31.4647 4.44247C31.246 4.3331 30.9659 4.27841 30.6245 4.27841C30.1572 4.27841 29.7677 4.38613 29.4562 4.60156C29.1479 4.81368 28.9938 5.08381 28.9938 5.41193C28.9938 5.7036 29.0999 5.93395 29.312 6.10298C29.5241 6.27202 29.8556 6.41288 30.3063 6.52557L31.4398 6.80398C32.1226 6.9697 32.6314 7.22325 32.9661 7.56463C33.3009 7.9027 33.4683 8.33854 33.4683 8.87216C33.4683 9.30966 33.3423 9.70076 33.0904 10.0455C32.8418 10.3902 32.4938 10.6619 32.0464 10.8608C31.5989 11.0597 31.0786 11.1591 30.4853 11.1591C29.7064 11.1591 29.0618 10.9901 28.5513 10.652C28.0409 10.3139 27.7178 9.82008 27.5819 9.17045L28.6955 8.89205C28.8016 9.30303 29.0021 9.61127 29.2971 9.81676C29.5954 10.0223 29.9848 10.125 30.4654 10.125C31.0123 10.125 31.4465 10.009 31.768 9.77699C32.0928 9.54167 32.2552 9.25994 32.2552 8.93182C32.2552 8.66667 32.1624 8.4446 31.9768 8.26562C31.7912 8.08333 31.5061 7.94744 31.1217 7.85795L29.8489 7.55966C29.1496 7.39394 28.6359 7.13707 28.3077 6.78906C27.9829 6.43774 27.8205 5.99858 27.8205 5.47159C27.8205 5.04072 27.9415 4.65956 28.1835 4.32812C28.4287 3.99669 28.7618 3.73651 29.1827 3.54758C29.607 3.35866 30.0876 3.2642 30.6245 3.2642C31.3802 3.2642 31.9735 3.42992 32.4043 3.76136C32.8385 4.0928 33.1468 4.5303 33.329 5.07386ZM38.3361 11.1591C37.6003 11.1591 36.9656 10.9967 36.432 10.6719C35.9017 10.3438 35.4924 9.88636 35.204 9.29972C34.919 8.70975 34.7765 8.02367 34.7765 7.24148C34.7765 6.45928 34.919 5.76989 35.204 5.1733C35.4924 4.57339 35.8934 4.10606 36.4071 3.77131C36.9242 3.43324 37.5274 3.2642 38.2168 3.2642C38.6145 3.2642 39.0073 3.33049 39.3951 3.46307C39.7828 3.59564 40.1358 3.81108 40.454 4.10938C40.7722 4.40436 41.0257 4.79545 41.2147 5.28267C41.4036 5.76989 41.498 6.36979 41.498 7.08239V7.57955H35.6117V6.56534H40.3049C40.3049 6.13447 40.2187 5.75 40.0463 5.41193C39.8773 5.07386 39.6354 4.80705 39.3205 4.61151C39.0089 4.41596 38.641 4.31818 38.2168 4.31818C37.7495 4.31818 37.3451 4.43419 37.0037 4.66619C36.6657 4.89489 36.4055 5.19318 36.2232 5.56108C36.0409 5.92898 35.9498 6.32339 35.9498 6.74432V7.42045C35.9498 7.99716 36.0492 8.48603 36.248 8.88707C36.4502 9.2848 36.7303 9.58807 37.0882 9.79688C37.4462 10.0024 37.8622 10.1051 38.3361 10.1051C38.6444 10.1051 38.9228 10.062 39.1713 9.97585C39.4232 9.88636 39.6403 9.75379 39.8226 9.57812C40.0049 9.39915 40.1458 9.17708 40.2452 8.91193L41.3787 9.23011C41.2594 9.61458 41.0589 9.95265 40.7772 10.2443C40.4954 10.5327 40.1474 10.758 39.7331 10.9205C39.3188 11.0795 38.8532 11.1591 38.3361 11.1591ZM47.0203 11V3.36364H48.1936V11H47.0203ZM47.6169 2.09091C47.3882 2.09091 47.191 2.01302 47.0253 1.85724C46.8629 1.70147 46.7817 1.5142 46.7817 1.29545C46.7817 1.0767 46.8629 0.889441 47.0253 0.733664C47.191 0.577888 47.3882 0.5 47.6169 0.5C47.8456 0.5 48.0412 0.577888 48.2036 0.733664C48.3693 0.889441 48.4522 1.0767 48.4522 1.29545C48.4522 1.5142 48.3693 1.70147 48.2036 1.85724C48.0412 2.01302 47.8456 2.09091 47.6169 2.09091ZM51.4159 6.40625V11H50.2426V3.36364H51.3761V4.55682H51.4756C51.6545 4.16903 51.9263 3.85748 52.2909 3.62216C52.6555 3.38352 53.1261 3.2642 53.7028 3.2642C54.2199 3.2642 54.6723 3.37027 55.0601 3.58239C55.4479 3.79119 55.7495 4.10938 55.9649 4.53693C56.1804 4.96117 56.2881 5.49811 56.2881 6.14773V11H55.1148V6.22727C55.1148 5.62737 54.959 5.16004 54.6474 4.82528C54.3359 4.48722 53.9083 4.31818 53.3648 4.31818C52.9902 4.31818 52.6555 4.39938 52.3605 4.56179C52.0688 4.72419 51.8385 4.96117 51.6695 5.27273C51.5004 5.58428 51.4159 5.96212 51.4159 6.40625ZM58.3321 13.8636V3.36364H59.4656V4.5767H59.6048C59.691 4.44413 59.8103 4.27509 59.9627 4.0696C60.1185 3.8608 60.3406 3.67519 60.6289 3.51278C60.9206 3.34706 61.315 3.2642 61.8122 3.2642C62.4552 3.2642 63.0219 3.42495 63.5125 3.74645C64.003 4.06794 64.3858 4.52367 64.6609 5.11364C64.936 5.7036 65.0735 6.39962 65.0735 7.2017C65.0735 8.01042 64.936 8.71141 64.6609 9.30469C64.3858 9.89465 64.0047 10.352 63.5174 10.6768C63.0302 10.9983 62.4684 11.1591 61.8321 11.1591C61.3415 11.1591 60.9488 11.0779 60.6538 10.9155C60.3588 10.7498 60.1318 10.5625 59.9727 10.3537C59.8136 10.1416 59.691 9.96591 59.6048 9.8267H59.5054V13.8636H58.3321ZM59.4855 7.18182C59.4855 7.75852 59.57 8.26728 59.739 8.7081C59.9081 9.1456 60.155 9.48864 60.4798 9.73722C60.8046 9.98248 61.2023 10.1051 61.673 10.1051C62.1635 10.1051 62.5728 9.97585 62.901 9.71733C63.2324 9.45549 63.481 9.10417 63.6467 8.66335C63.8157 8.21922 63.9002 7.72538 63.9002 7.18182C63.9002 6.64489 63.8174 6.16098 63.6517 5.73011C63.4893 5.29593 63.2423 4.95289 62.9109 4.70099C62.5828 4.44579 62.1701 4.31818 61.673 4.31818C61.1957 4.31818 60.7947 4.43916 60.4698 4.68111C60.145 4.91974 59.8998 5.2545 59.7341 5.68537C59.5683 6.11293 59.4855 6.61174 59.4855 7.18182ZM71.5758 7.87784V3.36364H72.7491V11H71.5758V9.70739H71.4963C71.3173 10.0952 71.0389 10.425 70.661 10.6967C70.2832 10.9652 69.8059 11.0994 69.2292 11.0994C68.752 11.0994 68.3277 10.995 67.9565 10.7862C67.5853 10.5741 67.2936 10.2559 67.0815 9.83168C66.8694 9.40412 66.7633 8.86553 66.7633 8.21591V3.36364H67.9366V8.13636C67.9366 8.69318 68.0924 9.13731 68.4039 9.46875C68.7188 9.80019 69.1199 9.96591 69.6071 9.96591C69.8987 9.96591 70.1954 9.89134 70.497 9.74219C70.8019 9.59304 71.0571 9.36435 71.2626 9.05611C71.4714 8.74787 71.5758 8.35511 71.5758 7.87784ZM78.1191 3.36364V4.35795H74.1617V3.36364H78.1191ZM75.3151 1.53409H76.4884V8.8125C76.4884 9.14394 76.5365 9.39252 76.6326 9.55824C76.732 9.72064 76.858 9.83002 77.0104 9.88636C77.1662 9.93939 77.3303 9.96591 77.5026 9.96591C77.6319 9.96591 77.738 9.95928 77.8208 9.94602C77.9037 9.92945 77.97 9.91619 78.0197 9.90625L78.2583 10.9602C78.1788 10.9901 78.0677 11.0199 77.9252 11.0497C77.7827 11.0829 77.6021 11.0994 77.3833 11.0994C77.0519 11.0994 76.7271 11.0282 76.4089 10.8857C76.094 10.7431 75.8322 10.526 75.6234 10.2344C75.4179 9.94271 75.3151 9.57481 75.3151 9.13068V1.53409ZM85.8687 11.179C85.3848 11.179 84.9456 11.0878 84.5512 10.9055C84.1568 10.7199 83.8436 10.4531 83.6116 10.1051C83.3796 9.75379 83.2636 9.32955 83.2636 8.83239C83.2636 8.39489 83.3497 8.04025 83.5221 7.76847C83.6944 7.49337 83.9248 7.27794 84.2131 7.12216C84.5015 6.96638 84.8197 6.85038 85.1677 6.77415C85.519 6.6946 85.872 6.63163 86.2266 6.58523C86.6906 6.52557 87.0668 6.48082 87.3552 6.45099C87.6468 6.41785 87.859 6.36316 87.9915 6.28693C88.1274 6.2107 88.1954 6.07812 88.1954 5.8892V5.84943C88.1954 5.3589 88.0611 4.97775 87.7927 4.70597C87.5275 4.43419 87.1248 4.2983 86.5846 4.2983C86.0245 4.2983 85.5853 4.42093 85.2671 4.66619C84.9489 4.91146 84.7252 5.1733 84.5959 5.4517L83.4823 5.05398C83.6812 4.58996 83.9463 4.22869 84.2778 3.97017C84.6125 3.70833 84.9771 3.52604 85.3715 3.4233C85.7692 3.31723 86.1603 3.2642 86.5448 3.2642C86.7901 3.2642 87.0718 3.29403 87.39 3.35369C87.7115 3.41004 88.0214 3.5277 88.3197 3.70668C88.6213 3.88565 88.8715 4.15578 89.0704 4.51705C89.2692 4.87831 89.3687 5.36222 89.3687 5.96875V11H88.1954V9.96591H88.1357C88.0562 10.1316 87.9236 10.3089 87.738 10.4979C87.5524 10.6868 87.3055 10.8475 86.9972 10.9801C86.689 11.1127 86.3128 11.179 85.8687 11.179ZM86.0477 10.125C86.5117 10.125 86.9028 10.0339 87.2209 9.85156C87.5424 9.66927 87.7844 9.43395 87.9468 9.1456C88.1125 8.85724 88.1954 8.55398 88.1954 8.2358V7.16193C88.1457 7.22159 88.0363 7.27628 87.8673 7.32599C87.7015 7.3724 87.5093 7.41383 87.2906 7.45028C87.0751 7.48343 86.8647 7.51326 86.6592 7.53977C86.457 7.56297 86.2929 7.58286 86.167 7.59943C85.862 7.6392 85.577 7.70384 85.3119 7.79332C85.05 7.8795 84.8379 8.01042 84.6755 8.18608C84.5164 8.35843 84.4369 8.59375 84.4369 8.89205C84.4369 9.29972 84.5877 9.60795 84.8893 9.81676C85.1942 10.0223 85.5803 10.125 86.0477 10.125ZM95.2477 11V3.36364H96.3812V4.51705H96.4608C96.6 4.1392 96.8519 3.83262 97.2164 3.5973C97.581 3.36198 97.992 3.24432 98.4494 3.24432C98.5356 3.24432 98.6433 3.24597 98.7725 3.24929C98.9018 3.2526 98.9996 3.25758 99.0659 3.2642V4.45739C99.0261 4.44744 98.935 4.43253 98.7924 4.41264C98.6532 4.38944 98.5057 4.37784 98.35 4.37784C97.9788 4.37784 97.6473 4.45573 97.3556 4.61151C97.0673 4.76397 96.8386 4.97609 96.6696 5.24787C96.5038 5.51634 96.421 5.82292 96.421 6.16761V11H95.2477ZM103.326 11.1591C102.59 11.1591 101.955 10.9967 101.422 10.6719C100.892 10.3438 100.482 9.88636 100.194 9.29972C99.9088 8.70975 99.7663 8.02367 99.7663 7.24148C99.7663 6.45928 99.9088 5.76989 100.194 5.1733C100.482 4.57339 100.883 4.10606 101.397 3.77131C101.914 3.43324 102.517 3.2642 103.207 3.2642C103.604 3.2642 103.997 3.33049 104.385 3.46307C104.773 3.59564 105.126 3.81108 105.444 4.10938C105.762 4.40436 106.016 4.79545 106.205 5.28267C106.393 5.76989 106.488 6.36979 106.488 7.08239V7.57955H100.602V6.56534H105.295C105.295 6.13447 105.209 5.75 105.036 5.41193C104.867 5.07386 104.625 4.80705 104.31 4.61151C103.999 4.41596 103.631 4.31818 103.207 4.31818C102.739 4.31818 102.335 4.43419 101.994 4.66619C101.656 4.89489 101.395 5.19318 101.213 5.56108C101.031 5.92898 100.94 6.32339 100.94 6.74432V7.42045C100.94 7.99716 101.039 8.48603 101.238 8.88707C101.44 9.2848 101.72 9.58807 102.078 9.79688C102.436 10.0024 102.852 10.1051 103.326 10.1051C103.634 10.1051 103.913 10.062 104.161 9.97585C104.413 9.88636 104.63 9.75379 104.812 9.57812C104.995 9.39915 105.136 9.17708 105.235 8.91193L106.369 9.23011C106.249 9.61458 106.049 9.95265 105.767 10.2443C105.485 10.5327 105.137 10.758 104.723 10.9205C104.309 11.0795 103.843 11.1591 103.326 11.1591ZM110.42 11.179C109.936 11.179 109.497 11.0878 109.102 10.9055C108.708 10.7199 108.395 10.4531 108.163 10.1051C107.931 9.75379 107.815 9.32955 107.815 8.83239C107.815 8.39489 107.901 8.04025 108.073 7.76847C108.246 7.49337 108.476 7.27794 108.764 7.12216C109.053 6.96638 109.371 6.85038 109.719 6.77415C110.07 6.6946 110.423 6.63163 110.778 6.58523C111.242 6.52557 111.618 6.48082 111.906 6.45099C112.198 6.41785 112.41 6.36316 112.543 6.28693C112.679 6.2107 112.747 6.07812 112.747 5.8892V5.84943C112.747 5.3589 112.612 4.97775 112.344 4.70597C112.079 4.43419 111.676 4.2983 111.136 4.2983C110.576 4.2983 110.136 4.42093 109.818 4.66619C109.5 4.91146 109.276 5.1733 109.147 5.4517L108.033 5.05398C108.232 4.58996 108.498 4.22869 108.829 3.97017C109.164 3.70833 109.528 3.52604 109.923 3.4233C110.32 3.31723 110.712 3.2642 111.096 3.2642C111.341 3.2642 111.623 3.29403 111.941 3.35369C112.263 3.41004 112.573 3.5277 112.871 3.70668C113.172 3.88565 113.423 4.15578 113.622 4.51705C113.82 4.87831 113.92 5.36222 113.92 5.96875V11H112.747V9.96591H112.687C112.607 10.1316 112.475 10.3089 112.289 10.4979C112.104 10.6868 111.857 10.8475 111.548 10.9801C111.24 11.1127 110.864 11.179 110.42 11.179ZM110.599 10.125C111.063 10.125 111.454 10.0339 111.772 9.85156C112.094 9.66927 112.336 9.43395 112.498 9.1456C112.664 8.85724 112.747 8.55398 112.747 8.2358V7.16193C112.697 7.22159 112.587 7.27628 112.418 7.32599C112.253 7.3724 112.06 7.41383 111.842 7.45028C111.626 7.48343 111.416 7.51326 111.21 7.53977C111.008 7.56297 110.844 7.58286 110.718 7.59943C110.413 7.6392 110.128 7.70384 109.863 7.79332C109.601 7.8795 109.389 8.01042 109.227 8.18608C109.068 8.35843 108.988 8.59375 108.988 8.89205C108.988 9.29972 109.139 9.60795 109.44 9.81676C109.745 10.0223 110.132 10.125 110.599 10.125ZM117.135 0.818182V11H115.961V0.818182H117.135ZM123.18 11V0.818182H129.325V1.91193H124.413V5.35227H129.007V6.44602H124.413V9.90625H129.405V11H123.18ZM131.288 11V3.36364H132.422V4.55682H132.521C132.68 4.14915 132.937 3.83262 133.292 3.60724C133.647 3.37855 134.072 3.2642 134.57 3.2642C135.073 3.2642 135.493 3.37855 135.827 3.60724C136.165 3.83262 136.429 4.14915 136.618 4.55682H136.697C136.893 4.16241 137.186 3.84919 137.577 3.61719C137.968 3.38187 138.437 3.2642 138.984 3.2642C139.667 3.2642 140.226 3.47798 140.66 3.90554C141.094 4.32978 141.311 4.991 141.311 5.8892V11H140.138V5.8892C140.138 5.32576 139.984 4.92306 139.675 4.68111C139.367 4.43916 139.004 4.31818 138.587 4.31818C138.05 4.31818 137.634 4.48059 137.339 4.8054C137.044 5.12689 136.896 5.53456 136.896 6.02841V11H135.703V5.76989C135.703 5.3357 135.562 4.98603 135.28 4.72088C134.999 4.45241 134.636 4.31818 134.192 4.31818C133.887 4.31818 133.602 4.39938 133.337 4.56179C133.075 4.72419 132.863 4.94957 132.7 5.23793C132.541 5.52296 132.462 5.85275 132.462 6.22727V11H131.288ZM145.603 11.179C145.12 11.179 144.68 11.0878 144.286 10.9055C143.892 10.7199 143.578 10.4531 143.346 10.1051C143.114 9.75379 142.998 9.32955 142.998 8.83239C142.998 8.39489 143.085 8.04025 143.257 7.76847C143.429 7.49337 143.66 7.27794 143.948 7.12216C144.236 6.96638 144.554 6.85038 144.902 6.77415C145.254 6.6946 145.607 6.63163 145.961 6.58523C146.425 6.52557 146.802 6.48082 147.09 6.45099C147.382 6.41785 147.594 6.36316 147.726 6.28693C147.862 6.2107 147.93 6.07812 147.93 5.8892V5.84943C147.93 5.3589 147.796 4.97775 147.527 4.70597C147.262 4.43419 146.86 4.2983 146.319 4.2983C145.759 4.2983 145.32 4.42093 145.002 4.66619C144.684 4.91146 144.46 5.1733 144.331 5.4517L143.217 5.05398C143.416 4.58996 143.681 4.22869 144.013 3.97017C144.347 3.70833 144.712 3.52604 145.106 3.4233C145.504 3.31723 145.895 3.2642 146.28 3.2642C146.525 3.2642 146.807 3.29403 147.125 3.35369C147.446 3.41004 147.756 3.5277 148.054 3.70668C148.356 3.88565 148.606 4.15578 148.805 4.51705C149.004 4.87831 149.103 5.36222 149.103 5.96875V11H147.93V9.96591H147.87C147.791 10.1316 147.658 10.3089 147.473 10.4979C147.287 10.6868 147.04 10.8475 146.732 10.9801C146.424 11.1127 146.048 11.179 145.603 11.179ZM145.782 10.125C146.246 10.125 146.638 10.0339 146.956 9.85156C147.277 9.66927 147.519 9.43395 147.682 9.1456C147.847 8.85724 147.93 8.55398 147.93 8.2358V7.16193C147.88 7.22159 147.771 7.27628 147.602 7.32599C147.436 7.3724 147.244 7.41383 147.025 7.45028C146.81 7.48343 146.599 7.51326 146.394 7.53977C146.192 7.56297 146.028 7.58286 145.902 7.59943C145.597 7.6392 145.312 7.70384 145.047 7.79332C144.785 7.8795 144.573 8.01042 144.41 8.18608C144.251 8.35843 144.172 8.59375 144.172 8.89205C144.172 9.29972 144.322 9.60795 144.624 9.81676C144.929 10.0223 145.315 10.125 145.782 10.125ZM151.145 11V3.36364H152.318V11H151.145ZM151.742 2.09091C151.513 2.09091 151.316 2.01302 151.15 1.85724C150.988 1.70147 150.906 1.5142 150.906 1.29545C150.906 1.0767 150.988 0.889441 151.15 0.733664C151.316 0.577888 151.513 0.5 151.742 0.5C151.97 0.5 152.166 0.577888 152.328 0.733664C152.494 0.889441 152.577 1.0767 152.577 1.29545C152.577 1.5142 152.494 1.70147 152.328 1.85724C152.166 2.01302 151.97 2.09091 151.742 2.09091ZM155.541 0.818182V11H154.367V0.818182H155.541ZM162.004 11H160.711L164.45 0.818182H165.722L169.461 11H168.168L165.126 2.42898H165.046L162.004 11ZM162.481 7.02273H167.691V8.11648H162.481V7.02273ZM173.671 11.1591C173.035 11.1591 172.473 10.9983 171.986 10.6768C171.499 10.352 171.118 9.89465 170.843 9.30469C170.568 8.71141 170.43 8.01042 170.43 7.2017C170.43 6.39962 170.568 5.7036 170.843 5.11364C171.118 4.52367 171.501 4.06794 171.991 3.74645C172.482 3.42495 173.048 3.2642 173.691 3.2642C174.188 3.2642 174.581 3.34706 174.87 3.51278C175.161 3.67519 175.383 3.8608 175.536 4.0696C175.692 4.27509 175.813 4.44413 175.899 4.5767H175.998V0.818182H177.171V11H176.038V9.8267H175.899C175.813 9.96591 175.69 10.1416 175.531 10.3537C175.372 10.5625 175.145 10.7498 174.85 10.9155C174.555 11.0779 174.162 11.1591 173.671 11.1591ZM173.831 10.1051C174.301 10.1051 174.699 9.98248 175.024 9.73722C175.349 9.48864 175.595 9.1456 175.764 8.7081C175.934 8.26728 176.018 7.75852 176.018 7.18182C176.018 6.61174 175.935 6.11293 175.769 5.68537C175.604 5.2545 175.358 4.91974 175.034 4.68111C174.709 4.43916 174.308 4.31818 173.831 4.31818C173.333 4.31818 172.919 4.44579 172.588 4.70099C172.26 4.95289 172.013 5.29593 171.847 5.73011C171.684 6.16098 171.603 6.64489 171.603 7.18182C171.603 7.72538 171.686 8.21922 171.852 8.66335C172.021 9.10417 172.269 9.45549 172.598 9.71733C172.929 9.97585 173.34 10.1051 173.831 10.1051ZM182.267 11.1591C181.63 11.1591 181.069 10.9983 180.581 10.6768C180.094 10.352 179.713 9.89465 179.438 9.30469C179.163 8.71141 179.025 8.01042 179.025 7.2017C179.025 6.39962 179.163 5.7036 179.438 5.11364C179.713 4.52367 180.096 4.06794 180.586 3.74645C181.077 3.42495 181.644 3.2642 182.287 3.2642C182.784 3.2642 183.177 3.34706 183.465 3.51278C183.757 3.67519 183.979 3.8608 184.131 4.0696C184.287 4.27509 184.408 4.44413 184.494 4.5767H184.593V0.818182H185.767V11H184.633V9.8267H184.494C184.408 9.96591 184.285 10.1416 184.126 10.3537C183.967 10.5625 183.74 10.7498 183.445 10.9155C183.15 11.0779 182.757 11.1591 182.267 11.1591ZM182.426 10.1051C182.896 10.1051 183.294 9.98248 183.619 9.73722C183.944 9.48864 184.191 9.1456 184.36 8.7081C184.529 8.26728 184.613 7.75852 184.613 7.18182C184.613 6.61174 184.53 6.11293 184.365 5.68537C184.199 5.2545 183.954 4.91974 183.629 4.68111C183.304 4.43916 182.903 4.31818 182.426 4.31818C181.929 4.31818 181.514 4.44579 181.183 4.70099C180.855 4.95289 180.608 5.29593 180.442 5.73011C180.28 6.16098 180.199 6.64489 180.199 7.18182C180.199 7.72538 180.281 8.21922 180.447 8.66335C180.616 9.10417 180.865 9.45549 181.193 9.71733C181.524 9.97585 181.935 10.1051 182.426 10.1051ZM187.979 11V3.36364H189.112V4.51705H189.192C189.331 4.1392 189.583 3.83262 189.947 3.5973C190.312 3.36198 190.723 3.24432 191.18 3.24432C191.266 3.24432 191.374 3.24597 191.503 3.24929C191.633 3.2526 191.73 3.25758 191.797 3.2642V4.45739C191.757 4.44744 191.666 4.43253 191.523 4.41264C191.384 4.38944 191.237 4.37784 191.081 4.37784C190.71 4.37784 190.378 4.45573 190.087 4.61151C189.798 4.76397 189.569 4.97609 189.4 5.24787C189.235 5.51634 189.152 5.82292 189.152 6.16761V11H187.979ZM196.057 11.1591C195.321 11.1591 194.686 10.9967 194.153 10.6719C193.622 10.3438 193.213 9.88636 192.925 9.29972C192.64 8.70975 192.497 8.02367 192.497 7.24148C192.497 6.45928 192.64 5.76989 192.925 5.1733C193.213 4.57339 193.614 4.10606 194.128 3.77131C194.645 3.43324 195.248 3.2642 195.938 3.2642C196.335 3.2642 196.728 3.33049 197.116 3.46307C197.504 3.59564 197.857 3.81108 198.175 4.10938C198.493 4.40436 198.746 4.79545 198.935 5.28267C199.124 5.76989 199.219 6.36979 199.219 7.08239V7.57955H193.332V6.56534H198.026C198.026 6.13447 197.939 5.75 197.767 5.41193C197.598 5.07386 197.356 4.80705 197.041 4.61151C196.73 4.41596 196.362 4.31818 195.938 4.31818C195.47 4.31818 195.066 4.43419 194.724 4.66619C194.386 4.89489 194.126 5.19318 193.944 5.56108C193.762 5.92898 193.67 6.32339 193.67 6.74432V7.42045C193.67 7.99716 193.77 8.48603 193.969 8.88707C194.171 9.2848 194.451 9.58807 194.809 9.79688C195.167 10.0024 195.583 10.1051 196.057 10.1051C196.365 10.1051 196.643 10.062 196.892 9.97585C197.144 9.88636 197.361 9.75379 197.543 9.57812C197.726 9.39915 197.866 9.17708 197.966 8.91193L199.099 9.23011C198.98 9.61458 198.78 9.95265 198.498 10.2443C198.216 10.5327 197.868 10.758 197.454 10.9205C197.04 11.0795 196.574 11.1591 196.057 11.1591ZM206.313 5.07386L205.259 5.37216C205.192 5.1965 205.095 5.0258 204.965 4.86009C204.839 4.69105 204.667 4.55185 204.448 4.44247C204.23 4.3331 203.949 4.27841 203.608 4.27841C203.141 4.27841 202.751 4.38613 202.44 4.60156C202.132 4.81368 201.977 5.08381 201.977 5.41193C201.977 5.7036 202.083 5.93395 202.296 6.10298C202.508 6.27202 202.839 6.41288 203.29 6.52557L204.423 6.80398C205.106 6.9697 205.615 7.22325 205.95 7.56463C206.284 7.9027 206.452 8.33854 206.452 8.87216C206.452 9.30966 206.326 9.70076 206.074 10.0455C205.825 10.3902 205.477 10.6619 205.03 10.8608C204.583 11.0597 204.062 11.1591 203.469 11.1591C202.69 11.1591 202.045 10.9901 201.535 10.652C201.025 10.3139 200.701 9.82008 200.565 9.17045L201.679 8.89205C201.785 9.30303 201.986 9.61127 202.281 9.81676C202.579 10.0223 202.968 10.125 203.449 10.125C203.996 10.125 204.43 10.009 204.752 9.77699C205.076 9.54167 205.239 9.25994 205.239 8.93182C205.239 8.66667 205.146 8.4446 204.96 8.26562C204.775 8.08333 204.49 7.94744 204.105 7.85795L202.833 7.55966C202.133 7.39394 201.619 7.13707 201.291 6.78906C200.967 6.43774 200.804 5.99858 200.804 5.47159C200.804 5.04072 200.925 4.65956 201.167 4.32812C201.412 3.99669 201.745 3.73651 202.166 3.54758C202.591 3.35866 203.071 3.2642 203.608 3.2642C204.364 3.2642 204.957 3.42992 205.388 3.76136C205.822 4.0928 206.13 4.5303 206.313 5.07386ZM213.527 5.07386L212.473 5.37216C212.407 5.1965 212.309 5.0258 212.18 4.86009C212.054 4.69105 211.882 4.55185 211.663 4.44247C211.444 4.3331 211.164 4.27841 210.823 4.27841C210.355 4.27841 209.966 4.38613 209.654 4.60156C209.346 4.81368 209.192 5.08381 209.192 5.41193C209.192 5.7036 209.298 5.93395 209.51 6.10298C209.722 6.27202 210.054 6.41288 210.504 6.52557L211.638 6.80398C212.321 6.9697 212.829 7.22325 213.164 7.56463C213.499 7.9027 213.666 8.33854 213.666 8.87216C213.666 9.30966 213.54 9.70076 213.288 10.0455C213.04 10.3902 212.692 10.6619 212.244 10.8608C211.797 11.0597 211.277 11.1591 210.683 11.1591C209.904 11.1591 209.26 10.9901 208.749 10.652C208.239 10.3139 207.916 9.82008 207.78 9.17045L208.894 8.89205C209 9.30303 209.2 9.61127 209.495 9.81676C209.793 10.0223 210.183 10.125 210.663 10.125C211.21 10.125 211.645 10.009 211.966 9.77699C212.291 9.54167 212.453 9.25994 212.453 8.93182C212.453 8.66667 212.36 8.4446 212.175 8.26562C211.989 8.08333 211.704 7.94744 211.32 7.85795L210.047 7.55966C209.348 7.39394 208.834 7.13707 208.506 6.78906C208.181 6.43774 208.019 5.99858 208.019 5.47159C208.019 5.04072 208.14 4.65956 208.382 4.32812C208.627 3.99669 208.96 3.73651 209.381 3.54758C209.805 3.35866 210.286 3.2642 210.823 3.2642C211.578 3.2642 212.172 3.42992 212.602 3.76136C213.037 4.0928 213.345 4.5303 213.527 5.07386Z" fill="#5F6D7E"/>
</svg>
